<svg width="481" height="84" viewBox="0 0 481 84" fill="none" xmlns="http://www.w3.org/2000/svg">
<path d="M457.381 42.5037H473.198V58.3789H457.381V42.5037ZM457.634 72.3452H449.368L460.418 2.01172H469.866L481 72.3452H472.734L465.268 19.4946L457.634 72.3452Z" fill="white"/>
<path d="M414.685 56.4699H447.161V84.0004H439.991V72.3452H421.855V84.0004H414.685V56.4699ZM416.119 56.4699C418.115 56.4699 419.647 54.8958 420.716 51.7475C421.812 48.5993 422.361 44.5802 422.361 39.6903V2.01172H443.027V72.2447H435.857V18.8917H429.531V41.097C429.531 48.4653 428.322 54.8288 425.904 60.1875C423.485 65.5463 420.364 68.2256 416.54 68.2256H415.317L414.685 56.4699H416.119Z" fill="white"/>
<path d="M388.827 36.8748C388.827 42.7694 389.615 47.6258 391.189 51.4439C392.764 55.195 394.704 57.0705 397.01 57.0705C399.315 57.0705 401.255 55.195 402.83 51.4439C404.405 47.6258 405.192 42.7694 405.192 36.8748C405.192 31.1142 404.391 26.3918 402.788 22.7076C401.213 18.9565 399.287 17.081 397.01 17.081C394.732 17.081 392.792 18.9565 391.189 22.7076C389.615 26.3918 388.827 31.1142 388.827 36.8748ZM381.657 36.8748C381.657 26.1573 383.133 17.3489 386.086 10.4495C389.066 3.48318 392.708 0 397.01 0C401.312 0 404.939 3.48318 407.891 10.4495C410.872 17.3489 412.362 26.1573 412.362 36.8748C412.362 47.6593 410.872 56.5682 407.891 63.6015C404.939 70.6349 401.312 74.1515 397.01 74.1515C392.708 74.1515 389.066 70.6349 386.086 63.6015C383.133 56.5682 381.657 47.6593 381.657 36.8748Z" fill="white"/>
<path d="M357.211 72.3452V2.01172H379.143V17.887H364.381V72.3452H357.211Z" fill="white"/>
<path d="M328.496 28.9394C330.239 25.7241 332.137 24.1165 334.19 24.1165C336.496 24.1165 338.45 26.461 340.053 31.1499C341.655 35.7718 342.457 41.4319 342.457 48.1304C342.457 55.5656 341.444 61.6612 339.42 66.4171C337.395 71.1059 334.795 73.4504 331.617 73.4504C329.002 73.4504 326.739 71.8093 324.827 68.5271C322.915 65.2448 321.607 60.7569 320.904 55.0632L327.99 49.537C328.187 51.6805 328.595 53.3551 329.213 54.5608C329.86 55.7666 330.661 56.3694 331.617 56.3694C332.686 56.3694 333.557 55.6326 334.232 54.1589C334.935 52.6183 335.287 50.6088 335.287 48.1304C335.287 45.7859 334.963 43.8434 334.317 42.3027C333.698 40.7621 332.911 39.9918 331.955 39.9918C330.661 39.9918 329.508 41.298 328.496 43.9104L321.326 39.8913V2.01172H341.613V18.7913H328.496V28.9394Z" fill="white"/>
<path d="M318.361 25.4205C318.361 29.6405 317.757 33.6261 316.548 37.3772C315.367 41.1283 313.961 44.2766 312.33 46.822L307.016 55.5634H318.361V72.343H297.189V53.0515L306.088 38.181C307.1 36.6404 307.761 35.6021 308.07 35.0662C308.38 34.5304 308.858 33.6261 309.504 32.3534C310.179 31.0807 310.629 29.9085 310.854 28.8367C311.079 27.765 311.191 26.6262 311.191 25.4205C311.191 23.277 310.854 21.5019 310.179 20.0953C309.504 18.6886 308.689 17.9853 307.733 17.9853C305.821 17.9853 304.542 20.5977 303.895 25.8224L296.809 21.1C297.596 15.1384 298.904 10.2821 300.732 6.53097C302.587 2.77985 304.921 0.904297 307.733 0.904297C310.685 0.904297 313.188 3.21525 315.24 7.83716C317.321 12.4591 318.361 18.3202 318.361 25.4205Z" fill="white"/>
<path d="M276.629 39.8904C276.629 44.9142 277.135 49.0338 278.147 52.249C279.16 55.4642 280.397 57.0719 281.859 57.0719C283.321 57.0719 284.558 55.4642 285.571 52.249C286.583 49.0338 287.089 44.9142 287.089 39.8904V34.5652C287.089 29.5413 286.583 25.4218 285.571 22.2066C284.558 18.9913 283.321 17.3837 281.859 17.3837C280.397 17.3837 279.16 18.9913 278.147 22.2066C277.135 25.4218 276.629 29.5413 276.629 34.5652V39.8904ZM269.459 39.8904V34.5652C269.459 24.6515 270.654 16.4794 273.044 10.0489C275.462 3.55147 278.4 0.302734 281.859 0.302734C285.318 0.302734 288.242 3.55147 290.632 10.0489C293.05 16.4794 294.259 24.6515 294.259 34.5652V39.8904C294.259 49.8041 293.05 58.0096 290.632 64.5071C288.242 70.9376 285.318 74.1528 281.859 74.1528C278.4 74.1528 275.462 70.9376 273.044 64.5071C270.654 58.0096 269.459 49.8041 269.459 39.8904Z" fill="white"/>
<path d="M266.917 25.4205C266.917 29.6405 266.312 33.6261 265.103 37.3772C263.922 41.1283 262.516 44.2766 260.885 46.822L255.571 55.5634H266.917V72.343H245.744V53.0515L254.643 38.181C255.655 36.6404 256.316 35.6021 256.626 35.0662C256.935 34.5304 257.413 33.6261 258.06 32.3534C258.734 31.0807 259.184 29.9085 259.409 28.8367C259.634 27.765 259.747 26.6262 259.747 25.4205C259.747 23.277 259.409 21.5019 258.734 20.0953C258.06 18.6886 257.244 17.9853 256.288 17.9853C254.376 17.9853 253.097 20.5977 252.45 25.8224L245.364 21.1C246.152 15.1384 247.459 10.2821 249.287 6.53097C251.142 2.77985 253.476 0.904297 256.288 0.904297C259.24 0.904297 261.743 3.21525 263.796 7.83716C265.876 12.4591 266.917 18.3202 266.917 25.4205Z" fill="white"/>
<path d="M217.993 18.8917C216.925 18.8917 216.025 19.5281 215.294 20.8008C214.591 22.0065 214.239 23.5471 214.239 25.4227C214.239 27.2983 214.591 28.9059 215.294 30.2456C216.025 31.5183 216.925 32.1546 217.993 32.1546H223.434V18.8917H217.993ZM213.311 46.8242C211.315 45.6854 209.698 43.207 208.461 39.3889C207.252 35.5708 206.647 31.0829 206.647 25.9251C206.647 18.6238 207.66 12.8297 209.684 8.54268C211.737 4.1887 214.366 2.01172 217.571 2.01172H230.604V72.3452H223.434V48.8337H220.945L214.83 72.3452H206.647L213.311 46.8242Z" fill="white"/>
<path d="M192.753 18.8917H187.312V36.1737H192.753C193.933 36.1737 194.918 35.3364 195.705 33.6618C196.52 31.9202 196.928 29.8102 196.928 27.3318C196.928 24.9203 196.534 22.9108 195.747 21.3032C194.96 19.6956 193.962 18.8917 192.753 18.8917ZM192.753 53.0537H187.312V72.3452H180.142V2.01172H193.174C196.295 2.01172 198.896 4.42315 200.977 9.24602C203.058 14.0689 204.098 20.0975 204.098 27.3318C204.098 34.4991 203.002 40.5946 200.808 45.6185C198.615 50.5753 195.93 53.0537 192.753 53.0537Z" fill="white"/>
<path d="M166.481 28.3365C169.237 28.3365 171.57 30.5135 173.482 34.8675C175.394 39.1545 176.35 44.3792 176.35 50.5418C176.35 56.7713 175.451 61.9626 173.651 66.1156C171.852 70.2686 169.602 72.3452 166.903 72.3452H150.074V2.01172H171.247V18.7913H157.244V28.3365H166.481ZM166.481 55.4651C167.268 55.4651 167.915 54.9962 168.421 54.0585C168.927 53.1207 169.18 51.9485 169.18 50.5418C169.18 49.0012 168.913 47.7285 168.379 46.7237C167.873 45.7189 167.24 45.2165 166.481 45.2165H157.244V55.4651H166.481Z" fill="white"/>
<path d="M133.227 18.8917C132.158 18.8917 131.259 19.5281 130.528 20.8008C129.825 22.0065 129.473 23.5471 129.473 25.4227C129.473 27.2983 129.825 28.9059 130.528 30.2456C131.259 31.5183 132.158 32.1546 133.227 32.1546H138.668V18.8917H133.227ZM128.545 46.8242C126.549 45.6854 124.932 43.207 123.695 39.3889C122.486 35.5708 121.881 31.0829 121.881 25.9251C121.881 18.6238 122.894 12.8297 124.918 8.54268C126.971 4.1887 129.6 2.01172 132.805 2.01172H145.838V72.3452H138.668V48.8337H136.179L130.064 72.3452H121.881L128.545 46.8242Z" fill="white"/>
<path d="M95.8131 36.8748C95.8131 42.7694 96.6004 47.6258 98.1751 51.4439C99.7497 55.195 101.69 57.0705 103.995 57.0705C106.301 57.0705 108.241 55.195 109.816 51.4439C111.39 47.6258 112.178 42.7694 112.178 36.8748C112.178 31.1142 111.376 26.3918 109.774 22.7076C108.199 18.9565 106.273 17.081 103.995 17.081C101.718 17.081 99.7778 18.9565 98.1751 22.7076C96.6004 26.3918 95.8131 31.1142 95.8131 36.8748ZM88.6431 36.8748C88.6431 26.1573 90.1193 17.3489 93.0716 10.4495C96.0521 3.48318 99.6934 0 103.995 0C108.298 0 111.925 3.48318 114.877 10.4495C117.858 17.3489 119.348 26.1573 119.348 36.8748C119.348 47.6593 117.858 56.5682 114.877 63.6015C111.925 70.6349 108.298 74.1515 103.995 74.1515C99.6934 74.1515 96.0521 70.6349 93.0716 63.6015C90.1193 56.5682 88.6431 47.6593 88.6431 36.8748Z" fill="white"/>
<path d="M59.9546 72.3452V2.01172H67.1247V28.6379H78.0907V2.01172H85.2608V72.3452H78.0907V45.518H67.1247V72.3452H59.9546Z" fill="white"/>
<path d="M28.4742 39.188H34.1681V22.9108L28.4742 39.188ZM41.3381 2.01172V39.188H45.4293V55.9675H41.3381V72.3452H34.1681V55.9675H20.8823V37.1784L33.3245 2.01172H41.3381Z" fill="white"/>
<path d="M17.7143 2.01172V72.3452H10.5442V21.2027L3.92246 31.9537L0 18.0879L10.0803 2.01172H17.7143Z" fill="white"/>
</svg>
