<svg width="221" height="100" viewBox="0 0 221 100" fill="none" xmlns="http://www.w3.org/2000/svg">
<path d="M199.763 71.0932L182.085 73.607L196.456 19.8807L164.997 24.3543L162.74 8.48196L211.022 1.61611L213.414 18.4389L199.763 71.0932Z" fill="white"/>
<path d="M155.601 9.49688L165.061 76.0276L148.904 78.3252L142.025 29.9479L128.549 42.2395L117.845 30.3804L138.398 11.9432L155.601 9.49688Z" fill="white"/>
<path d="M75.7799 57.4031C76.4557 62.1553 78.1503 65.8899 80.8639 68.6069C83.5774 71.324 86.5816 72.4482 89.8765 71.9797C93.1713 71.5111 95.743 69.594 97.5916 66.2282C99.4402 62.8624 100.027 58.8034 99.3508 54.0513L98.6345 49.0139C97.9587 44.2617 96.264 40.5271 93.5505 37.8101C90.8369 35.0931 87.8327 33.9688 84.5379 34.4373C81.243 34.9059 78.6713 36.823 76.8228 40.1888C74.9742 43.5546 74.3878 47.6136 75.0636 52.3658L75.7799 57.4031ZM59.6224 59.7007L58.9061 54.6634C57.5726 45.2857 59.1663 37.1726 63.6871 30.3239C68.2623 23.4028 74.4467 19.3882 82.2403 18.2799C90.0339 17.1716 97.0606 19.3076 103.32 24.6879C109.635 29.9959 113.458 37.3386 114.792 46.7163L115.508 51.7536C116.842 61.1313 115.221 69.2807 110.646 76.2017C106.125 83.0504 99.9677 87.0289 92.1741 88.1371C84.3805 89.2454 77.3266 87.1456 71.0125 81.8376C64.7526 76.4574 60.956 69.0784 59.6224 59.7007Z" fill="white"/>
<path d="M51.9462 46.8297C52.5139 50.8216 51.6877 54.7854 49.4677 58.7211C47.311 62.6479 44.5664 66.0764 41.2338 69.0068L30.4341 78.9786L56.0009 75.3429L58.2579 91.2152L10.5459 98L7.95096 79.7516L26.0049 62.8333C28.0787 61.0516 29.4281 59.8577 30.053 59.2517C30.6779 58.6457 31.6334 57.6371 32.9196 56.226C34.2691 54.8059 35.1252 53.5529 35.4879 52.467C35.8507 51.3811 35.951 50.2679 35.7888 49.1274C35.5004 47.0998 34.5013 45.5288 32.7914 44.4144C31.0815 43.3 29.1494 42.896 26.995 43.2024C22.6864 43.8151 20.1548 46.6962 19.4003 51.8457L2.79766 49.6492C3.76989 43.7577 6.06301 38.7449 9.677 34.611C13.3544 30.468 18.3612 27.946 24.6974 27.0449C31.3505 26.0989 37.3006 27.4829 42.5478 31.1972C47.8583 34.9025 50.9911 40.1133 51.9462 46.8297Z" fill="white"/>
</svg>
