<svg width="221" height="71" viewBox="0 0 221 71" fill="none" xmlns="http://www.w3.org/2000/svg">
<path d="M189.217 27.3598C193.185 24.2878 197.505 22.7518 202.177 22.7518C207.425 22.7518 211.873 24.9918 215.521 29.4718C219.169 33.8878 220.993 39.2958 220.993 45.6958C220.993 52.7998 218.689 58.6238 214.081 63.1678C209.473 67.6478 203.554 69.8878 196.322 69.8878C190.37 69.8878 185.217 68.3198 180.865 65.1838C176.513 62.0478 173.538 57.7598 171.938 52.3198L188.065 47.0398C188.513 49.0878 189.442 50.6878 190.85 51.8398C192.322 52.9918 194.146 53.5678 196.322 53.5678C198.754 53.5678 200.737 52.8638 202.273 51.4558C203.873 49.9838 204.673 48.0638 204.673 45.6958C204.673 43.4558 203.938 41.5998 202.465 40.1278C201.057 38.6558 199.265 37.9198 197.089 37.9198C194.145 37.9198 191.521 39.1678 189.217 41.6638L172.897 37.8238V1.63184H219.074V17.6638H189.217V27.3598Z" fill="white"/>
<path d="M166.15 24.0002C166.15 28.0322 164.774 31.8402 162.022 35.4242C159.334 39.0082 156.134 42.0162 152.422 44.4482L140.326 52.8002H166.15V68.8322H117.958V50.4002L138.214 36.1922C140.518 34.7202 142.022 33.7282 142.726 33.2162C143.43 32.7042 144.518 31.8402 145.99 30.6242C147.526 29.4082 148.55 28.2882 149.062 27.2642C149.574 26.2402 149.83 25.1522 149.83 24.0002C149.83 21.9522 149.062 20.2562 147.526 18.9122C145.99 17.5682 144.134 16.8962 141.958 16.8962C137.606 16.8962 134.694 19.3922 133.222 24.3842L117.094 19.8722C118.886 14.1762 121.862 9.53617 126.022 5.95217C130.246 2.36817 135.558 0.576172 141.958 0.576172C148.678 0.576172 154.374 2.78417 159.046 7.20017C163.782 11.6162 166.15 17.2162 166.15 24.0002Z" fill="white"/>
<path d="M71.1637 37.824C71.1637 42.624 72.3157 46.56 74.6197 49.632C76.9237 52.704 79.7398 54.24 83.0678 54.24C86.3958 54.24 89.2118 52.704 91.5158 49.632C93.8197 46.56 94.9718 42.624 94.9718 37.824V32.736C94.9718 27.936 93.8197 24 91.5158 20.928C89.2118 17.856 86.3958 16.32 83.0678 16.32C79.7398 16.32 76.9237 17.856 74.6197 20.928C72.3157 24 71.1637 27.936 71.1637 32.736V37.824ZM54.8438 37.824V32.736C54.8438 23.264 57.5637 15.456 63.0037 9.312C68.5077 3.104 75.1958 0 83.0678 0C90.9398 0 97.5957 3.104 103.036 9.312C108.54 15.456 111.292 23.264 111.292 32.736V37.824C111.292 47.296 108.54 55.136 103.036 61.344C97.5957 67.488 90.9398 70.56 83.0678 70.56C75.1958 70.56 68.5077 67.488 63.0037 61.344C57.5637 55.136 54.8438 47.296 54.8438 37.824Z" fill="white"/>
<path d="M49.056 24.0002C49.056 28.0322 47.68 31.8402 44.928 35.4242C42.24 39.0082 39.04 42.0162 35.328 44.4482L23.232 52.8002H49.056V68.8322H0.864V50.4002L21.12 36.1922C23.424 34.7202 24.928 33.7282 25.632 33.2162C26.336 32.7042 27.424 31.8402 28.896 30.6242C30.432 29.4082 31.456 28.2882 31.968 27.2642C32.48 26.2402 32.736 25.1522 32.736 24.0002C32.736 21.9522 31.968 20.2562 30.432 18.9122C28.896 17.5682 27.04 16.8962 24.864 16.8962C20.512 16.8962 17.6 19.3922 16.128 24.3842L0 19.8722C1.792 14.1762 4.768 9.53617 8.928 5.95217C13.152 2.36817 18.464 0.576172 24.864 0.576172C31.584 0.576172 37.28 2.78417 41.952 7.20017C46.688 11.6162 49.056 17.2162 49.056 24.0002Z" fill="white"/>
</svg>
