<svg width="1438" height="398" viewBox="0 0 1438 398" fill="none" xmlns="http://www.w3.org/2000/svg">
<path d="M0.000478172 260.151V566H1440V278.719C1437.2 278.59 1434.4 278.461 1431.58 278.33V269.435H1440V260.151C1437.2 260.022 1434.4 259.893 1431.58 259.763V250.868H1440V204.449C1437.21 204.325 1434.42 204.2 1431.47 204.07C1431.27 200.918 1431.1 198.102 1430.89 194.859C1427.72 195.088 1424.95 195.288 1422.18 195.479C1421.94 192.394 1421.7 189.307 1421.43 185.882H1440V167.314C1437.2 167.185 1434.4 167.056 1431.3 166.912V148.831H1421.47V166.88H1411.89V149.008C1405.3 149.008 1399.32 149.008 1393.33 149C1392.38 145.889 1392.75 142.781 1393.2 139.108H1421.28V130.239C1418.16 130.088 1415.35 129.952 1412.28 129.803C1412.08 126.719 1411.9 123.881 1411.71 120.937C1408.52 120.79 1405.7 120.66 1402.5 120.512V111.723H1383.41C1383.26 114.682 1383.13 117.402 1382.98 120.422H1373.88C1373.71 117.629 1373.53 114.79 1373.34 111.687H1364.22C1364.03 114.632 1363.85 117.576 1363.67 120.466H1335.3V111.696C1332.14 111.69 1328.98 111.685 1325.82 111.679C1325.67 114.529 1325.51 117.381 1325.34 120.491C1322.12 120.655 1319.18 120.806 1316.23 120.956V130.149H1335.35V157.68C1338.75 157.838 1341.68 157.975 1344.41 158.102V166.861H1316.4V158.042C1319.6 157.901 1322.42 157.778 1325.31 157.651V139.308C1318.82 139.308 1312.62 139.339 1306.42 139.3C1300.1 139.26 1293.77 139.48 1287.51 139.165V130.204C1290.63 130.069 1293.45 129.947 1296.9 129.797V121.006C1287.34 120.994 1277.79 120.983 1268.23 120.971C1268.22 124.013 1268.21 127.054 1268.2 130.095C1265.09 130.096 1261.98 130.096 1258.58 130.096C1258.43 133.324 1258.3 136.161 1258.17 139.02H1239.56V120.562H1248.54C1248.74 117.32 1248.91 114.485 1249.09 111.562H1258.51C1258.66 105.536 1258.8 99.5089 1258.94 93.4747C1255.82 93.1693 1252.7 92.864 1248.94 92.4952V65.3164H1229.95V74.1067C1232.93 74.2469 1235.74 74.3801 1238.87 74.5277V92.7122H1220.11V120.499C1216.76 120.647 1213.83 120.776 1210.67 120.916V139.401C1213.8 139.37 1216.92 139.306 1220.04 139.32C1223.14 139.333 1226.24 139.428 1229.71 139.494C1229.71 142.968 1229.71 145.841 1229.71 148.706C1223.35 148.741 1216.99 148.777 1210.63 148.813C1210.59 158.06 1210.55 167.308 1210.51 176.556H1191.31V195.124C1188.12 195.119 1184.92 195.114 1181.73 195.11C1181.59 198.099 1181.45 201.087 1181.31 203.991H1162.64V185.832H1152.61V194.69H1143.27C1143.22 188.448 1143.06 182.532 1143.35 176.715H1162.68V167.033H1181.3V157.871H1172.29C1172.09 154.617 1171.91 151.778 1171.72 148.805C1168.56 148.653 1165.74 148.519 1162.68 148.372C1162.48 145.274 1162.3 142.433 1162.1 139.511C1158.9 139.357 1156.09 139.221 1152.9 139.067V111.714C1149.94 111.566 1146.98 111.418 1143.45 111.241C1143.3 108.401 1143.16 105.569 1143.01 102.47H1133.69V129.835C1126.93 129.983 1120.78 130.118 1114.63 130.254V139.047C1117.83 139.238 1120.76 139.414 1123.66 139.588V157.617H1104.9V130.29C1101.74 130.279 1098.58 130.267 1095.42 130.256C1095.24 133.199 1095.05 136.143 1094.86 139.122C1091.57 139.267 1088.77 139.391 1085.62 139.53C1085.62 145.947 1085.62 152.012 1085.62 158.072C1082.53 157.928 1079.43 157.782 1076.21 157.631C1076.06 154.522 1075.92 151.799 1075.75 148.499H1047.43C1047.25 145.179 1047.11 142.455 1046.96 139.669H1037.39V148.342H1018.35V120.951C1014.92 120.791 1012.1 120.66 1009.17 120.523V111.752H1027.75C1028.43 117.904 1027.5 123.893 1028.38 130.13H1056.91V120.97H1047.64C1047.08 117.603 1046.87 114.821 1047.68 112.02C1044.59 111.723 1041.48 111.424 1037.86 111.076C1037.71 108.35 1037.55 105.522 1037.38 102.267H1028.37V92.9524H1046.95C1047.11 89.728 1047.25 86.8964 1047.41 83.7123H1085.71C1085.7 77.567 1085.7 71.4223 1085.7 65.2775H1075.81V74.0054H1066.61C1066.46 70.974 1066.32 68.2483 1066.17 65.3761H1056.64V74.4421H1037.38V83.3458H1028.34V55.6113H1037.33C1037.53 52.3615 1037.71 49.5272 1037.91 46.2866H1066.14V37.1145H1037.83C1037.65 33.7824 1037.51 31.0535 1037.34 27.8962H1028.32V18.5437H1047.3V9.59237C1044.25 9.43413 1041.19 9.27591 1037.73 9.09685V0.665998C1034.34 -0.329677 1031.27 0.0164027 1028.22 0.275037C1028.04 3.21533 1027.86 6.15563 1027.68 9.04688H1018.5V0.317608C1012.15 0.311594 1005.8 0.306496 999.445 0.300481V9.1172C1002.53 9.2634 1005.35 9.39713 1008.47 9.54564V18.4396H999.482V27.6168C1002.4 27.8 1005.34 27.9837 1008.52 28.1831V36.9669C1005.61 37.0909 1002.8 37.2108 999.595 37.3473V46.4726C1002.42 46.4726 1005.24 46.4009 1008.06 46.4906C1011.67 46.6058 1015.28 46.8473 1018.89 47.0315C1018.62 49.7113 1018.35 52.3953 1018.03 55.5687C1008.65 55.7126 999.247 55.857 989.848 56.0009C989.963 62.2669 990.078 68.5324 990.193 74.7984C992.981 74.537 995.774 74.2751 998.996 73.9725V65.3978H1018.11V74.1007C1015.22 74.2242 1012.41 74.3455 1009.08 74.4884C1008.91 77.3177 1008.74 80.1599 1008.55 83.4166H999.293V111.169C995.748 111.368 992.793 111.533 989.846 111.698C989.856 114.743 989.865 117.789 989.875 120.835H999.297V139.409H1008.39V148.397C1005.19 148.546 1002.38 148.676 998.981 148.834V157.551H989.808C989.656 154.513 989.52 151.79 989.373 148.813H980.234C980.071 151.668 979.908 154.524 979.731 157.612H960.964V139.586C957.593 139.411 954.663 139.259 951.484 139.094V130.232H960.366V121.051H922.671C921.915 129.949 922.853 139.008 922.136 148.288H912.897V130.272H903.372V148.393H893.712C893.712 151.979 893.712 154.988 893.712 157.988H884.196C884.127 154.635 884.01 151.639 884.02 148.645C884.031 145.613 884.163 142.583 884.245 139.551C887.176 139.391 890.115 139.232 893.552 139.045V102.279H903.312V93.118C899.798 92.9551 896.985 92.8246 893.875 92.6803C893.686 89.6095 893.51 86.7687 893.305 83.4615C890.159 83.685 887.377 83.8821 884.589 84.0727C884.351 80.9802 884.113 77.8867 883.864 74.6545H903.011C903.161 77.7734 903.297 80.5818 903.447 83.71H912.913V65.0614H903.383V56.1522H893.819C893.688 58.825 893.555 61.5359 893.392 64.8509C883.9 64.9902 874.464 65.1285 865.026 65.2664C864.87 68.1132 864.713 70.9633 864.542 74.0711C861.332 74.2349 858.386 74.3857 855.442 74.5361V102.036H883.625V111.176H845.869C845.707 108.334 845.545 105.502 845.37 102.44H836.289C836.105 105.28 835.922 108.117 835.722 111.202C832.525 111.37 829.575 111.526 826.626 111.681C826.44 114.637 826.254 117.595 826.057 120.74H798.062C797.139 113.587 797.429 87.0311 798.408 83.7095H807.314V65.1091H798.011C797.486 61.9102 797.274 59.1262 798.088 56.322C794.806 56.216 791.524 56.1101 788.243 56.0041C788.08 58.8403 787.916 61.6807 787.731 64.8833C781.356 64.9953 775.24 65.1031 769.124 65.2113V74.2215H787.658V101.962C784.828 102.082 781.894 102.207 778.514 102.35C778.514 108.66 778.514 114.757 778.514 120.852H769.105C768.519 115.952 768.886 111.375 768.82 106.827C768.756 102.387 768.806 97.946 768.806 93.2031H759.359V111.249H740.302C740.114 114.471 739.948 117.299 739.759 120.535H730.78V130.025C733.641 130.025 736.465 129.952 739.282 130.043C742.89 130.157 746.493 130.4 750.094 130.583C749.889 133.28 749.684 135.982 749.443 139.145H768.404V148.458H759.527C759.308 151.699 759.117 154.539 758.91 157.611H740.162V148.721H720.879V139.505H711.573C710.74 133.191 711.586 127.2 710.987 121.033H701.686V139.104C694.932 139.262 688.788 139.407 682.647 139.551C682.603 145.696 682.558 151.841 682.513 157.986H653.876C653.71 154.785 653.562 151.953 653.403 148.871H644.286C644.104 151.688 643.92 154.527 643.721 157.605H634.738V139.551C643.918 138.87 653.282 139.723 662.884 139.056V130.13H644.058V120.915H625.217V111.567H653.715V102.453C656.701 102.286 659.625 102.122 662.88 101.94C662.996 100.447 663.186 99.1156 663.19 97.7836C663.216 88.5491 663.18 79.3141 663.229 70.0801C663.236 68.5967 663.557 67.1152 663.733 65.6254L653.847 65.2877C653.764 72.6548 653.678 80.022 653.601 87.3896C653.584 89.0441 653.599 90.6987 653.599 92.6863C646.92 92.8436 640.779 92.988 634.641 93.1323C634.475 95.9787 634.308 98.8302 634.118 102.093H615.439C615.29 105.216 615.161 107.931 615.004 111.242H605.899V129.868H624.502V166.972C622.639 167.034 620.792 167.091 618.945 167.159C614.697 167.315 610.449 167.477 606.191 167.629C605.914 161.533 605.636 155.434 605.338 148.886C608.772 148.689 611.704 148.522 614.904 148.339V139.655H577.021C576.875 142.48 576.735 145.199 576.578 148.247H557.866C557.483 139.189 557.352 130.058 557.916 120.916C564.248 120.893 570.579 120.869 576.91 120.846C576.875 117.82 576.803 114.793 576.815 111.767C576.828 108.626 576.924 105.485 576.985 102.277H586.513V83.8349H577.024C576.84 86.7747 576.654 89.715 576.472 92.6086H557.701V83.8599C554.632 83.6924 551.555 83.5245 548.06 83.3334V74.5324H538.841V65.3099C541.639 65.1392 544.563 64.9601 548.106 64.7436V55.9884C541.821 55.8468 535.535 55.7048 529.183 55.5613V37.2904H538.513V28.7887C534.679 27.7125 515.989 27.5066 509.878 28.4001V37.2802H519.314V65.1669H528.8C528.8 70.0745 528.736 74.5254 528.817 78.9745C528.901 83.5258 528.435 88.1156 529.159 92.8899H547.708V101.912C544.505 102.098 541.568 102.269 538.218 102.464V111.209C534.851 111.397 531.917 111.562 529.05 111.723V120.834H538.108C538.32 124.052 538.506 126.887 538.719 130.134H547.59V139.116C544.383 139.263 541.579 139.391 538.506 139.532C538.375 145.817 538.298 151.721 538.538 158.069H547.718V166.889C544.538 167.081 541.602 167.258 538.688 167.434V176.246C541.874 176.401 544.803 176.543 547.669 176.683V185.503C544.428 185.675 541.496 185.831 538.153 186.01V194.75H519.442C519.442 191.614 519.442 188.73 519.442 185.845C513.037 185.879 506.632 185.912 500.226 185.946C500.069 188.796 499.912 191.648 499.741 194.759C496.527 194.923 493.578 195.074 490.63 195.224C490.592 198.285 490.553 201.344 490.514 204.404H481.012C480.858 207.542 480.72 210.351 480.571 213.346C477.265 213.508 474.343 213.65 471.425 213.792C471.244 216.735 471.063 219.677 470.885 222.57H461.7V213.812C455.43 213.674 449.158 213.536 442.5 213.39V204.524C439.411 204.368 436.32 204.212 433.187 204.054V195.115H442.511C442.507 192.066 442.504 189.016 442.5 185.967C436.255 186.025 430.009 186.082 423.756 186.133C423.57 182.346 423.347 178.56 423.219 174.771C423.138 172.355 423.204 169.935 423.204 167.382C419.757 167.218 416.942 167.085 413.94 166.942V157.759H422.832V148.797C419.652 148.641 416.837 148.502 413.995 148.363V139.622H432.633C433.123 151.992 432.437 164.097 433.03 176.548H442.511C442.507 161.128 442.504 145.707 442.5 130.287C435.534 130.199 428.567 130.076 421.601 130.034C414.245 129.99 406.888 130.024 399.532 130.024H394.41V120.869H375.384C374.922 108.321 375.47 96.1962 375.061 83.8617H365.824C365.69 86.6424 365.56 89.3634 365.4 92.6956H346.513C346.513 99.3849 346.513 105.479 346.513 111.57H336.937V93.137H327.447C327.365 103.596 327.281 114.054 327.201 124.513C327.189 126.169 327.199 127.825 327.199 129.918H308.215V138.887H298.56V130.406H288.91C288.91 139.634 288.91 148.811 288.91 157.989H279.394V139.483H269.995C269.232 134.546 269.69 129.97 269.624 125.433C269.558 120.855 269.667 116.275 269.702 111.696C266.542 111.69 263.383 111.685 260.223 111.679C260.066 114.529 259.909 117.381 259.738 120.491C256.527 120.655 253.577 120.806 250.629 120.956V129.75C253.817 129.948 256.749 130.13 260.112 130.339V148.405C263.491 148.557 266.42 148.688 269.25 148.815V157.876C262.391 157.876 255.871 157.83 249.353 157.897C246.7 157.925 244.049 158.189 241.389 158.343C241.272 155.133 241.156 151.922 241.04 148.712H221.698V139.574H212.272C212.114 142.291 211.949 145.124 211.766 148.265H193.206V139.531C196.037 139.394 198.848 139.258 202.024 139.104V120.786H193.136V111.716C195.925 111.562 198.86 111.401 202.084 111.223V102.22C195.976 102.353 189.895 101.663 183.781 102.633C183.482 99.6533 183.183 96.6667 182.826 93.1013H164.457C163.867 89.7534 163.674 86.9714 164.485 84.1703C161.391 83.9209 158.292 83.6711 154.694 83.3815C154.505 86.6396 154.341 89.4629 154.16 92.5767H145.039C144.902 89.8038 144.763 86.9778 144.604 83.7266H135.716C135.024 80.5134 134.845 77.7281 135.731 74.9122C132.428 74.7933 129.125 74.6744 125.822 74.556C125.635 77.5027 125.449 80.4546 125.239 83.7771H106.42C106.42 93.3475 106.42 102.503 106.422 111.655C103.35 111.509 100.276 111.364 97.0759 111.212C96.8644 108.062 96.675 105.243 96.4865 102.433H87.3761C87.2378 105.487 87.1096 108.311 86.9838 111.103C83.729 111.409 80.9584 111.67 78.1825 111.922C77.85 108.791 77.5175 105.655 77.14 102.106H58.4982V93.1453C55.5463 92.9977 52.5829 92.8496 49.0463 92.6729C48.9037 89.8367 48.7621 87.0065 48.6066 83.9052H29.9682V101.95C32.8962 102.089 35.7161 102.223 39.1527 102.387V139.273H67.7789C67.8976 142.698 68.0019 145.704 68.1057 148.704H58.7887V166.888C61.6784 167.062 64.6093 167.238 67.7698 167.429C67.9258 170.42 68.0674 173.138 68.2186 176.037C71.6184 176.37 74.8564 176.687 78.0892 176.999C77.8189 179.686 77.5476 182.377 77.2318 185.519C74.3191 185.65 71.3926 185.78 68.0646 185.929V203.924H58.4901V195.417C55.1746 194.883 52.2925 194.693 49.3793 195.468C49.1803 193.683 48.8449 191.898 48.8291 190.112C48.764 182.724 48.8018 175.334 48.8018 167.409C45.6121 167.258 42.6888 167.12 39.4986 166.969V158.145C42.386 157.974 45.3202 157.801 48.5114 157.613V148.612C42.3329 148.735 36.2525 148.179 30.1424 148.989C29.9534 147.362 29.6371 145.737 29.6276 144.11C29.5749 134.993 29.6022 125.876 29.6017 116.759V111.75C26.3656 111.559 23.4347 111.386 20.0598 111.187V102.358H10.8141V93.1175C13.6134 92.9801 16.4252 92.8418 19.813 92.6757C19.878 90.8078 19.9335 89.0196 20.0034 87.2314C20.1641 83.1159 20.3321 79.0013 20.4966 74.8863C17.3906 74.5865 14.2794 74.2862 10.5366 73.9249V46.6257H0V111.612C3.40024 111.54 6.83588 110.978 10.5241 112.157V120.972H19.6823V139.463H0V195.166C3.32417 195.115 6.65216 194.956 9.97202 195.044C13.2196 195.13 16.5438 194.486 19.6795 195.523V204.449H0V213.733H10.1117V241.584H0.000478172V250.868C3.39067 250.781 6.80957 250.271 10.0921 251.24V260.151H0.000478172V260.151ZM1200.64 361.881H1191.51V353.232H1200.64V361.881ZM1229.16 352.517H1210.64V343.814H1229.16V352.517ZM1239.79 232.683C1239.54 229.584 1239.29 226.481 1238.98 222.664C1242.9 222.95 1246.09 223.183 1249.28 223.416C1248.98 226.211 1248.68 229.006 1248.39 231.766C1245.33 232.092 1242.56 232.388 1239.79 232.683ZM1239.74 232.727C1239.56 236.519 1239.35 240.311 1239.21 244.105C1239.14 246.194 1239.2 248.287 1239.2 250.387C1235.73 250.669 1232.95 250.894 1230.16 251.104C1230.05 244.87 1229.95 238.635 1229.85 232.399C1233.15 232.511 1236.45 232.623 1239.74 232.727ZM1229.73 260.132H1220.24C1220.24 256.636 1220.24 253.798 1220.24 250.966C1223.5 251.057 1226.75 251.149 1230.01 251.241C1229.92 254.204 1229.82 257.168 1229.73 260.132ZM1229.73 232.281H1220.24C1220.24 228.78 1220.24 225.937 1220.24 223.101C1223.3 222.84 1226.38 222.409 1229.73 223.565V232.281ZM1220.13 222.997H1210.74V214.002H1220.13V222.997ZM1220.13 241.853V250.848H1210.74V241.853H1220.13ZM1229.84 260.236C1232.9 259.975 1235.98 259.545 1239.33 260.699V269.416H1229.84C1229.84 265.914 1229.84 263.072 1229.84 260.236ZM1238.88 334.037H1229.9V325.197H1238.88V334.037ZM1239.05 296.841H1229.98V278.355C1233.49 278.634 1236.6 278.881 1239.69 279.118C1239.53 282.921 1239.35 286.723 1239.2 290.527C1239.12 292.623 1239.1 294.721 1239.05 296.841ZM1248.44 278.221C1245.32 278.517 1242.55 278.779 1239.77 279.042C1239.66 275.869 1239.56 272.695 1239.45 269.52C1242.51 269.266 1245.59 268.805 1248.44 269.831V278.221ZM1258.08 296.902H1249.1V288.062H1258.08V296.902ZM1268 231.889H1258.67C1258.48 228.822 1258.3 225.99 1258.09 222.716C1254.94 222.941 1252.17 223.139 1249.38 223.322C1249.14 220.235 1248.9 217.14 1248.61 213.331C1255.76 213.631 1262.16 213.899 1268.54 214.159C1268.36 217.947 1268.15 221.733 1268.01 225.521C1267.94 227.607 1268 229.698 1268 231.889ZM1286.84 214.125V222.595H1277.84V213.802C1280.9 213.576 1283.99 213.099 1286.84 214.125ZM1287.76 241.908C1287.54 238.793 1287.32 235.678 1287.1 232.55H1296.45V241.087C1293.33 241.381 1290.55 241.645 1287.76 241.908ZM1287.69 241.984C1287.6 244.918 1287.5 247.851 1287.41 250.785H1277.98V241.22C1281.49 241.499 1284.6 241.746 1287.69 241.984ZM1286.89 287.479H1277.75V278.934H1286.89V287.479ZM1296.61 315.278H1287.47V306.769H1296.61V315.278ZM1305.97 352.513H1297.2V343.699H1305.97V352.513ZM1315.64 324.722H1306.73V315.95H1315.64V324.722ZM1325.3 352.588H1316.28V334.644H1325.3V352.588ZM1325.33 306.08H1316.41V288.184H1325.33V306.08ZM1334.84 259.734H1325.84C1325.84 256.64 1325.84 253.796 1325.84 250.953C1328.91 250.7 1331.99 250.233 1334.84 251.265V259.734ZM1325.84 232.06C1325.84 228.799 1325.84 225.952 1325.84 223.108C1335.28 222.71 1344.7 222.7 1354.06 223.128V241.181H1345.09C1344.88 238.126 1344.69 235.289 1344.48 232.06H1325.84ZM1334.79 194.631C1331.73 194.957 1328.96 195.253 1326.19 195.548C1326.05 192.38 1325.9 189.212 1325.75 186.044C1329.06 186.125 1332.37 186.205 1335.68 186.287C1335.38 189.08 1335.08 191.873 1334.79 194.631ZM1345.28 204.847C1344.97 207.655 1344.67 210.462 1344.37 213.292H1335.58V204.086C1339.08 204.361 1342.18 204.604 1345.28 204.847ZM1363.64 149.139V157.609H1354.64V148.816C1357.7 148.59 1360.79 148.113 1363.64 149.139ZM1354.53 260.42V269.416H1345.14V260.42H1354.53ZM1353.56 315.363H1345.04V288.185H1353.93C1354.88 295.133 1354.6 312.323 1353.56 315.363ZM1363.64 278.301H1354.65C1354.65 275.207 1354.65 272.363 1354.64 269.52C1357.71 269.268 1360.79 268.8 1363.64 269.833V278.301H1363.64ZM1402.16 306.115H1393.18V297.428H1402.16V306.115ZM1402.21 203.942H1383.48V195.365H1402.21V203.942ZM1412.24 288.087C1415.31 287.835 1418.39 287.368 1421.24 288.4V296.869H1412.24C1412.24 293.774 1412.24 290.93 1412.24 288.087ZM1421.33 315.37H1412.41V306.746H1421.33V315.37ZM1412.38 194.803C1415.88 195.077 1418.99 195.321 1422.09 195.565C1421.78 198.367 1421.47 201.176 1421.17 204.008H1412.38V194.803ZM1421.25 269.685V278.222C1418.13 278.517 1415.35 278.78 1412.57 279.043C1412.34 275.928 1412.12 272.813 1411.9 269.685H1421.25ZM1412.49 279.118C1412.37 282.072 1412.25 285.025 1412.13 287.979C1409.03 287.87 1405.93 287.76 1402.78 287.649V278.353C1406.29 278.633 1409.4 278.881 1412.49 279.118ZM1411.73 259.668H1402.81V251.043H1411.73V259.668ZM1411.62 241.137H1402.63V223.147H1411.62V241.137ZM1373.94 130.281H1383.33V148.723C1380.24 148.613 1377.15 148.504 1373.94 148.391V130.281ZM1373.91 157.643H1383C1383.16 154.315 1383.3 151.576 1383.44 148.844C1386.7 148.935 1389.96 149.027 1393.22 149.119C1393.14 157.857 1393.06 166.603 1393.02 175.35C1393.02 175.589 1393.35 175.83 1393.88 176.546H1411.58V185.403H1383.41C1383.25 182.356 1383.11 179.625 1382.97 176.725C1379.72 176.517 1376.79 176.329 1373.91 176.143V157.643ZM1382.92 231.89C1383.12 228.821 1383.31 225.987 1383.5 223.122H1392.43V241.17H1373.84C1373.84 238.077 1373.84 235.233 1373.84 232.389C1376.78 232.227 1379.72 232.065 1382.92 231.89ZM1364.36 186.01H1373.22V204.131H1364.36V186.01ZM1364.34 223.285H1373.73V232.28H1364.34V223.285ZM1363.71 167.396V176.095H1354.66V167.396H1363.71ZM1363.66 130.426V138.97C1360.56 139.26 1357.78 139.52 1354.98 139.765C1354.75 136.661 1354.52 133.556 1354.29 130.426H1363.66ZM1345.18 139.099C1348.69 139.374 1351.79 139.618 1354.88 139.861C1354.76 142.808 1354.64 145.755 1354.51 148.701C1351.42 148.602 1348.32 148.502 1345.18 148.401V139.099ZM1354.06 195.412V203.956C1350.96 204.246 1348.18 204.507 1345.38 204.752C1345.15 201.647 1344.92 198.543 1344.69 195.412L1354.06 195.412ZM1344.46 176.844V185.388C1341.36 185.679 1338.58 185.939 1335.78 186.185C1335.55 183.08 1335.32 179.975 1335.09 176.844H1344.46ZM1316.37 176.716H1325.62C1325.62 179.952 1325.62 182.942 1325.62 185.924C1322.55 185.779 1319.48 185.633 1316.37 185.486V176.716ZM1316.9 194.833C1319.92 195.082 1323.03 195.339 1326.13 195.589C1325.95 196.307 1325.63 197.025 1325.63 197.742C1325.63 206.159 1325.69 214.576 1325.73 222.993C1322.63 222.884 1319.52 222.775 1316.51 222.67C1315.61 216.834 1315.83 198.494 1316.9 194.833ZM1325.73 241.83V250.853C1322.68 250.987 1319.64 251.119 1316.59 251.253C1316.35 248.123 1316.12 244.995 1315.88 241.829H1325.73V241.83ZM1314.34 250.767C1315.08 250.766 1315.81 251.098 1316.54 251.28C1316.2 254.091 1315.87 256.902 1315.48 260.099H1296.98C1296.83 263.336 1296.7 266.171 1296.57 268.982H1287.52C1287.52 262.755 1287.52 256.82 1287.52 250.89C1296.46 250.84 1305.4 250.777 1314.34 250.767ZM1297.03 213.291V204.576H1306.01V213.291H1297.03ZM1278.01 148.767H1306.12V157.944H1287.59C1286.64 166.592 1286.99 182.463 1288.05 185.347H1296.59C1296.75 182.258 1296.89 179.542 1297.03 176.853H1306.04V194.742H1277.51V158.099C1274.08 157.926 1271.26 157.783 1268.32 157.635C1268.32 148.268 1268.32 139.234 1268.32 130.202H1277.31C1278.06 136.468 1277.06 142.464 1278.01 148.767ZM1277.71 204.69C1277.71 207.948 1277.71 210.826 1277.71 213.697C1274.67 213.837 1271.63 213.977 1268.59 214.117C1268.35 210.99 1268.12 207.863 1267.88 204.69H1277.71ZM1267.65 186.132V194.668C1264.54 194.963 1261.75 195.226 1258.97 195.488C1258.74 192.37 1258.52 189.257 1258.3 186.131H1267.65V186.132ZM1258.89 195.575C1258.59 198.37 1258.28 201.165 1257.97 204.05H1239.35V195.328C1245.86 195.41 1252.38 195.494 1258.89 195.575ZM1249.17 148.877H1258.01V157.585H1249.17V148.877ZM1248.45 167.565V176.101C1245.34 176.396 1242.55 176.658 1239.77 176.921C1239.54 173.803 1239.32 170.69 1239.1 167.565H1248.45ZM1229.86 102.409H1238.91V111.108H1229.86V102.409ZM1229.84 148.816C1232.9 148.59 1235.99 148.113 1238.84 149.139V157.609H1229.84V148.816ZM1220.28 167.545H1229.72V176.675C1233.05 176.787 1236.37 176.899 1239.7 177.006C1239.54 183.076 1239.38 189.146 1239.23 195.213H1229.41V203.997H1220.24V185.848H1210.64V176.678C1213.85 176.69 1217.06 176.703 1220.28 176.716V167.545ZM1210.03 269.017H1191.55V260.251H1210.03V269.017ZM1200.54 231.822H1191.61V223.186H1200.54V231.822ZM1200.44 213.302H1191.44V195.245C1194.38 195.245 1197.32 195.245 1200.44 195.245V213.302ZM1133.98 250.425V241.219C1137.49 241.498 1140.6 241.746 1143.69 241.983C1143.38 244.793 1143.07 247.604 1142.76 250.425H1133.98ZM1152.37 315.38H1143.43V306.734H1152.37V315.38ZM1171.64 361.855H1162.65C1162.65 358.761 1162.65 355.917 1162.64 353.074C1165.71 352.821 1168.79 352.354 1171.64 353.386L1171.64 361.855ZM1181.24 315.437H1172.25C1172.25 312.342 1172.25 309.498 1172.24 306.655C1175.31 306.403 1178.39 305.936 1181.24 306.968L1181.24 315.437ZM1172.32 241.606H1181.21V250.423H1172.32C1172.32 247.298 1172.32 244.45 1172.32 241.606ZM1181.25 223.267V231.803C1178.13 232.098 1175.35 232.361 1172.57 232.624C1172.34 229.509 1172.12 226.394 1171.9 223.267H1181.25ZM1162.78 231.936C1166.29 232.215 1169.4 232.462 1172.49 232.7C1172.4 235.634 1172.3 238.567 1172.21 241.501H1162.78V231.936ZM1162.74 297.555H1172.13V306.55H1162.74V297.555ZM1162.53 352.97H1153.14V343.974H1162.53V352.97ZM1152.61 259.761C1152.76 256.461 1152.89 253.751 1153.02 250.955H1162.03C1162.17 251.896 1162.37 252.629 1162.37 253.362C1162.4 258.423 1162.39 263.483 1162.39 269.036H1143.52V259.761H1152.61ZM1143.35 213.948H1152.49V222.493H1143.35V213.948ZM1152.45 232.55V241.087C1149.33 241.381 1146.55 241.644 1143.77 241.907C1143.54 238.793 1143.32 235.678 1143.1 232.55L1152.45 232.55ZM1152.44 148.842V166.887H1143.45C1143.45 160.697 1143.45 154.769 1143.44 148.842H1152.44ZM1133.94 139.732H1143.33V148.727H1133.94V139.732ZM1046.88 352.607H1037.91V343.762H1046.88V352.607ZM1056.39 204.42V213.274H1037.96V186.014H1047.15V204.42H1056.39ZM1056.55 296.834H1047.56V278.855H1056.55V296.834ZM1066.53 232.281H1057.14V223.286H1066.53V232.281ZM1066 333.967H1057.18V325.279H1066V333.967ZM1066.64 232.385C1069.71 232.133 1072.79 231.665 1075.64 232.697V241.167H1066.65C1066.65 238.072 1066.65 235.228 1066.64 232.385ZM1076.13 195.146C1073.05 195.145 1069.96 195.145 1066.74 195.145V186.15H1076.13V195.146ZM1075.65 278.311H1066.73V269.522H1075.65V278.311ZM1076.24 204.071C1076.24 200.941 1076.24 198.1 1076.24 195.262C1082.74 195.374 1089.24 195.486 1095.73 195.595C1095.55 196.31 1095.23 197.025 1095.23 197.741C1095.23 206.152 1095.28 214.563 1095.31 222.975H1076.34V213.463H1085.25V204.486C1082.1 204.341 1079.3 204.212 1076.24 204.071ZM1094.91 371.056H1085.76V362.522H1094.91V371.056ZM1095.04 269.039H1085.9V241.837H1095.04V269.039ZM1104.44 231.879H1095.44V223.086C1098.5 222.86 1101.59 222.383 1104.44 223.409V231.879ZM1114.12 371.061H1105.06V362.462H1114.12V371.061ZM1114.15 333.969H1105.16V315.99H1114.15V333.969ZM1123.64 287.591H1105.13V278.46H1114.13C1114.31 275.219 1114.48 272.372 1114.64 269.53H1123.64V287.591ZM1114.53 269.416H1105.14V260.42H1114.53V269.416ZM1133.24 231.867H1124.24V204.529C1127.18 204.529 1130.12 204.529 1133.24 204.529V231.867ZM1133.24 176.99V185.46H1124.24V176.667C1127.3 176.441 1130.39 175.964 1133.24 176.99ZM1114.74 167.579H1124.11C1124.11 170.843 1124.11 173.703 1124.11 176.556H1114.74V167.579ZM1124.11 195.196C1124.11 198.67 1124.11 201.542 1124.11 204.407H1114.24V213.289H1105.04V195.241C1108.17 195.163 1111.3 195.037 1114.44 195.027C1117.54 195.017 1120.64 195.13 1124.11 195.196ZM1095.17 176.462C1098.28 176.437 1101.4 176.554 1104.91 176.615V195.129C1101.87 195.269 1098.83 195.41 1095.79 195.55C1095.46 192.403 1095.13 189.259 1094.78 185.932C1091.79 185.793 1088.98 185.663 1085.75 185.512V176.754C1088.89 176.647 1092.03 176.487 1095.17 176.462ZM1094.85 158.366V166.817C1091.74 167.111 1088.96 167.374 1086.17 167.637C1086.03 164.48 1085.89 161.328 1085.75 158.176C1088.83 157.773 1091.9 157.509 1094.85 158.366ZM1084.38 167.226C1084.95 167.225 1085.53 167.521 1086.09 167.696C1085.94 170.679 1085.78 173.663 1085.63 176.645C1072.99 176.533 1060.35 176.422 1047.44 176.308C1047.44 173.094 1047.44 170.249 1047.44 167.409C1059.76 167.34 1072.07 167.264 1084.38 167.226ZM1037.94 158.299H1047.33V167.295C1044.25 167.294 1041.16 167.294 1037.94 167.294V158.299ZM1037.9 223.254H1046.87V231.914H1037.9V223.254ZM1027.65 37.592V46.1284C1024.54 46.4226 1021.75 46.6859 1018.97 46.9487C1018.74 43.8312 1018.52 40.7178 1018.3 37.592H1027.65ZM1009.36 297.611C1009.14 294.496 1008.92 291.381 1008.7 288.253H1018.05V296.789C1014.93 297.084 1012.15 297.347 1009.36 297.611ZM1009.29 297.686C1009.2 300.619 1009.1 303.553 1009.01 306.487H999.576V296.923C1003.09 297.202 1006.2 297.449 1009.29 297.686ZM1009.12 306.593H1027.6V315.416H1009.12C1009.12 312.292 1009.12 309.44 1009.12 306.593ZM1017.97 213.292H1009.18V204.086C1012.68 204.361 1015.78 204.604 1018.88 204.847C1018.57 207.655 1018.27 210.462 1017.97 213.292ZM1017.99 223.161V231.843H1009.02V223.161H1017.99ZM1027.7 334.018H1018.67V325.345H1027.7V334.018ZM1028.32 260.078H1037.21V269.079C1034.04 269.229 1031.23 269.361 1027.85 269.52V278.272H1018.65C1018.65 268.978 1018.65 259.971 1018.65 250.962H1027.71C1027.92 254.012 1028.1 256.844 1028.32 260.078ZM1018.4 186.133H1027.66V203.955C1024.56 204.246 1021.78 204.507 1018.98 204.753C1017.78 198.548 1018.67 192.342 1018.4 186.133ZM1018.06 167.56V176.105C1014.96 176.395 1012.18 176.656 1009.38 176.901C1009.15 173.796 1008.92 170.692 1008.69 167.561H1018.06V167.56ZM999.578 176.235C1003.08 176.509 1006.18 176.753 1009.28 176.996C1008.97 179.804 1008.67 182.611 1008.37 185.44H999.578V176.235ZM999.545 241.431C1002.88 241.431 1005.87 241.407 1008.87 241.438C1011.97 241.469 1015.06 241.554 1018.53 241.622V250.848H999.546L999.545 241.431ZM902.894 306.047H893.752V297.502H902.894V306.047ZM894.158 251.192C893.002 244.975 893.853 238.762 893.616 232.556H902.853V250.371C899.735 250.665 896.946 250.929 894.158 251.192ZM921.979 269.115H913.196V260.311H921.979V269.115ZM922.378 246.864C922.371 248.043 922.133 249.221 921.999 250.424H913.322C912.431 244.981 912.616 226.429 913.664 222.694C916.67 222.929 919.771 223.171 922.872 223.413C922.708 224.896 922.431 226.378 922.419 227.862C922.366 234.195 922.416 240.53 922.378 246.864ZM932.236 223.095C941.194 223.026 950.151 222.944 959.109 222.912C959.84 222.91 960.571 223.224 961.294 223.4C961.129 227.201 960.949 231.001 960.802 234.802C960.721 236.896 960.694 238.992 960.64 241.213C957.279 241.37 954.475 241.5 951.22 241.651C951.22 244.911 951.22 247.919 951.224 250.92C948.218 251.011 945.211 251.101 942.187 251.177C941.991 247.376 941.753 243.577 941.618 239.775C941.531 237.354 941.601 234.928 941.601 232.364C938.153 232.203 935.332 232.071 932.235 231.926V223.095H932.236ZM932.379 259.71V250.505C935.874 250.779 938.978 251.023 942.078 251.266C941.775 254.074 941.471 256.881 941.165 259.71H932.379ZM950.958 352.536H941.976V343.844H950.958V352.536ZM951.347 251.013C954.428 250.607 957.505 250.352 960.929 251.335V260.132H951.347V251.013ZM969.973 315.699C968.127 315.699 966.703 315.734 965.283 315.689C963.906 315.645 962.531 315.518 961.203 315.431V306.564H969.973V315.699ZM970.039 269.018H961.046C961.046 265.923 961.046 263.079 961.045 260.236C964.111 259.984 967.191 259.516 970.039 260.549V269.018ZM970.051 222.52C966.934 222.814 964.148 223.077 961.365 223.34C961.143 220.226 960.922 217.111 960.7 213.983H970.051V222.52ZM989.439 315.313H980.295V306.8H989.439V315.313ZM998.779 334.101H989.996V325.297H998.779V334.101ZM998.914 278.23H980.261V269.622H998.914V278.23ZM998.947 231.837H980.405V223.171H998.947V231.837ZM998.81 213.279H989.919C989.919 207.052 989.919 201.118 989.915 195.188H998.81V213.279ZM989.802 186.403V195.089C986.732 195.243 983.662 195.396 980.593 195.55C980.475 192.35 980.357 189.151 980.24 185.951C983.291 185.7 986.357 185.318 989.802 186.403ZM970.539 167.511H989.291V176.199C986.073 176.378 983.137 176.543 980.11 176.712C980.11 180.06 980.11 182.952 980.11 185.836C977.005 185.732 973.899 185.628 970.484 185.514C970.406 179.182 970.27 173.26 970.539 167.511ZM978.806 195.083C979.387 195.082 979.968 195.398 980.542 195.574C980.206 198.384 979.87 201.194 979.531 204.028H951.436V195.244C960.56 195.183 969.683 195.111 978.806 195.083ZM951.309 195.124H941.778C941.633 198.33 941.505 201.156 941.372 204.084C938.064 204.239 935.266 204.37 932.11 204.517C932.11 210.849 932.11 216.916 932.11 222.98C929.074 223.099 926.038 223.218 922.984 223.323C922.787 219.705 922.433 216.086 922.435 212.468C922.44 203.612 922.613 194.756 922.715 185.903C928.837 185.793 934.959 185.684 941.408 185.569C941.559 179.255 941.701 173.331 941.843 167.41H951.311C951.31 176.806 951.31 185.966 951.309 195.124ZM941.73 167.295H932.34V158.299H941.73V167.295ZM932.303 139.522H941.276V148.362H932.303V139.522ZM922.602 176.83V185.803C919.523 185.938 916.444 186.072 913.365 186.207C913.141 183.097 912.917 179.988 912.689 176.83H922.602V176.83ZM912.434 158.063V166.896H893.836V158.106C896.976 158.028 900.116 157.9 903.256 157.892C906.362 157.884 909.467 158.003 912.434 158.063ZM894.509 185.496C900.686 185.758 906.991 186.026 913.288 186.283C912.979 189.094 912.67 191.906 912.35 194.811C909.234 194.961 906.427 195.095 903.036 195.257V222.556H894.082C893.179 216.54 893.428 189.213 894.509 185.496ZM884.382 250.503C887.89 250.782 890.992 251.029 894.082 251.266C893.281 254.085 893.439 256.881 894.054 260.104H902.794V268.981H884.382V250.503H884.382ZM884.336 325.234H893.24V334.005H884.336V325.234ZM758.851 129.682C755.736 129.976 752.952 130.24 750.169 130.503C749.944 127.385 749.723 124.272 749.501 121.146H758.851V129.682ZM730.078 315.324H711.476V297.501H720.913V306.21C724.276 306.375 727.198 306.519 730.079 306.66L730.078 315.324ZM720.365 231.859H711.579V222.654C715.073 222.928 718.178 223.171 721.278 223.415C720.975 226.222 720.671 229.03 720.365 231.859ZM730.212 241.783V250.292H721.066V241.783H730.212ZM739.573 352.513H730.802V343.699H739.573V352.513ZM739.696 287.599H721.06V269.63H730.477V278.308C733.839 278.498 736.763 278.663 739.697 278.829L739.696 287.599ZM740.379 259.71V250.505C743.874 250.779 746.978 251.023 750.078 251.266C749.774 254.074 749.471 256.881 749.166 259.71H740.379ZM749.606 232.555H759.329V250.852C756.284 250.965 753.24 251.078 750.177 251.177C748.979 244.968 749.871 238.759 749.606 232.555ZM749.979 222.575V213.37C753.473 213.644 756.578 213.888 759.677 214.131C759.375 216.938 759.071 219.746 758.765 222.575H749.979ZM758.873 278.332H749.901V269.673H758.873V278.332ZM759.445 250.956C762.496 250.763 765.553 250.571 769.004 250.353V241.675H778.51C778.51 247.974 778.51 254.042 778.51 260.11H759.445C759.445 256.642 759.445 253.796 759.445 250.956ZM787.638 269.014H778.636V260.221C781.703 259.995 784.785 259.519 787.638 260.544V269.014ZM787.642 278.988V287.658H778.733V278.988H787.642ZM768.585 315.349H759.475V288.229H768.95V296.943C772.332 297.096 775.259 297.228 778.42 297.371C778.42 300.847 778.42 303.739 778.424 306.618H768.984C768.841 309.73 768.717 312.452 768.585 315.349ZM778.547 315.45V306.732C781.864 306.816 785.181 306.9 788.489 306.974C788.189 309.769 787.89 312.564 787.581 315.45H778.547ZM788.565 306.894C788.343 303.779 788.122 300.665 787.9 297.537H797.25V306.073C794.134 306.368 791.348 306.631 788.565 306.894ZM806.887 352.594H788.29V343.667C794.679 343.489 800.772 343.518 806.887 343.615V352.594ZM836.202 260.068H826.645C826.645 256.643 826.645 253.795 826.645 250.952C829.697 250.677 832.762 250.298 836.202 251.399V260.068ZM835.984 237.068C835.934 238.402 835.788 239.732 835.682 241.084C832.534 241.382 829.748 241.645 826.965 241.908C826.744 238.794 826.522 235.678 826.3 232.551H835.996C835.996 234.324 836.037 235.698 835.984 237.068ZM826.894 241.984C826.774 244.937 826.654 247.891 826.534 250.844C823.433 250.735 820.332 250.625 817.184 250.514V241.219C820.696 241.498 823.802 241.746 826.894 241.984ZM826.102 269.555V278.218H807.454V260.341H816.868V269.011C820.228 269.209 823.152 269.381 826.102 269.555ZM817.036 176.668C820.103 176.441 823.186 175.965 826.038 176.99V185.46H817.036V176.668ZM816.909 176.556H807.347V167.46C810.425 167.051 813.499 166.809 816.91 167.765C816.91 170.811 816.91 173.684 816.909 176.556ZM807.33 316.123V325.118H797.94V316.123H807.33ZM806.914 241.084H797.763V232.55H806.914V241.084ZM816.439 334.004H807.446C807.446 330.912 807.446 328.067 807.445 325.223C810.512 324.97 813.591 324.503 816.439 325.535L816.439 334.004ZM817.188 315.411V306.161C823.89 306.446 830.195 306.714 836.489 306.972C836.179 309.781 835.87 312.589 835.559 315.41L817.188 315.411ZM845.585 302.054C845.534 303.388 845.388 304.719 845.283 306.07C842.134 306.368 839.349 306.631 836.565 306.894C836.344 303.779 836.123 300.665 835.901 297.537H845.596C845.596 299.311 845.637 300.684 845.585 302.054ZM855.022 352.585H845.921V343.962H855.022V352.585ZM864.391 278.269H836.32C836.32 272.044 836.32 266.109 836.315 260.176C842.773 260.305 849.23 260.434 855.678 260.554C854.885 263.371 855.037 266.167 855.657 269.389H864.39V278.269H864.391ZM845.975 241.279V232.437H854.801V241.279H845.975ZM855.763 260.475C855.545 257.36 855.326 254.244 855.084 250.827C861.935 250.688 868.04 250.621 874.043 250.826V259.997C871.331 259.997 868.962 259.939 866.598 260.01C862.985 260.119 859.375 260.315 855.763 260.475ZM874.135 361.843H865.151V353.101H874.135V361.843ZM874.135 241.154H865.151V232.412H874.135V241.154ZM883.836 296.894H874.708V288.246H883.836V296.894ZM883.564 92.603H865.187V83.3565C871.885 83.6364 878.187 83.8997 884.487 84.1629C884.174 86.9621 883.87 89.7687 883.564 92.603ZM865.131 130.125C871.559 130.004 877.65 129.93 884.129 130.157V139.444C881.037 139.443 877.937 139.443 874.265 139.443V157.598H865.131V130.125ZM836.24 121.069H845.413C845.559 124.191 845.691 127.008 845.843 130.238H854.918V138.975H836.24V121.069ZM854.899 148.95V157.618C851.699 157.803 848.77 157.972 845.441 158.164V166.914H836.281V148.95H854.899ZM836.197 194.694V176.711H845.723V194.692H854.947C855.619 185.388 854.762 176.327 855.442 167.504H864.88V185.519C868.268 185.686 871.198 185.83 874.509 185.992C874.509 189.411 874.509 192.328 874.509 195.244H883.638V213.373C880.486 213.516 877.677 213.645 874.579 213.786C874.439 216.873 874.31 219.709 874.18 222.582H865.041V204.4H845.399V213.255H836.212C836.056 210.218 835.916 207.494 835.745 204.173H817.103V195.179C823.49 194.687 829.681 195.411 836.197 194.694ZM807.47 139.479C810.637 139.344 813.563 139.22 816.588 139.092C816.747 135.874 816.882 133.161 817.02 130.397H826.217V148.241H807.47V139.479ZM797.967 158.149H807.22C807.22 161.386 807.22 164.375 807.224 167.357C804.152 167.212 801.08 167.066 797.967 166.918V158.149ZM788.311 130.201H797.208V148.31H778.762V139.146H787.714C787.932 135.895 788.123 133.046 788.311 130.201ZM788.202 121.417V130.095C785.095 130.096 781.987 130.096 778.636 130.096V120.964C781.688 120.715 784.755 120.331 788.202 121.417ZM778.051 158.281V166.817C774.934 167.112 772.148 167.375 769.365 167.638C769.144 164.523 768.922 161.408 768.701 158.281H778.051ZM769.286 167.716C768.25 173.62 769.007 179.501 768.823 185.43H778.146C778.333 182.325 778.504 179.488 778.668 176.754H788.013V185.79H806.911V194.746C803.729 194.935 800.798 195.109 797.451 195.308V213.198H778.24V195.399H768.585V213.228C765.365 213.53 762.579 213.791 759.779 214.037C759.58 212.418 759.239 210.8 759.229 209.179C759.174 199.678 759.213 190.175 759.189 180.673C759.186 179.357 759.01 178.041 758.885 176.315C755.702 176.511 752.931 176.681 750.15 176.835C749.931 173.765 749.712 170.685 749.443 166.921C756.557 167.21 762.927 167.468 769.286 167.716ZM711.459 158.231H730.5V166.957C733.873 167.121 736.804 167.263 740.109 167.423V176.676C743.409 176.774 746.707 176.871 750.007 176.969C749.775 182.858 749.543 188.749 749.296 195.01C746.523 195.01 744.156 194.953 741.794 195.024C738.184 195.133 734.576 195.328 730.967 195.488C730.859 192.269 730.75 189.051 730.642 185.833C727.496 185.733 724.351 185.634 721.035 185.53C720.873 182.428 720.731 179.706 720.576 176.717C717.406 176.521 714.471 176.341 711.459 176.155V158.231ZM711.453 195.096C718.1 195.208 724.502 194.43 730.886 195.557C730.719 197.044 730.433 198.529 730.42 200.017C730.366 206.331 730.415 212.645 730.38 218.959C730.373 220.14 730.153 221.321 730.028 222.525C726.955 222.813 724.176 223.074 721.382 223.32C721.184 221.238 720.874 219.159 720.828 217.075C720.738 212.976 720.802 208.873 720.802 204.571C717.346 204.368 714.423 204.196 711.453 204.022V195.096H711.453ZM662.779 371.236H653.996V362.432H662.779V371.236ZM672.514 296.787H663.363V288.253H672.514V296.787ZM682.132 250.384H673.212V241.76H682.132V250.384ZM692.235 176.678C695.177 176.678 698.12 176.678 701.237 176.678V204.016H692.235V176.678ZM702.089 251.267C701.781 254.078 701.471 256.887 701.161 259.709H692.383V250.503C695.888 250.782 698.995 251.029 702.089 251.267ZM701.332 306.086H692.412V297.462H701.332V306.086ZM701.413 278.143H692.266V269.634H701.413V278.143ZM710.901 343.302H701.873V334.628H710.901V343.302ZM710.851 241.834V250.371C707.734 250.665 704.949 250.928 702.165 251.191C701.944 248.077 701.723 244.962 701.501 241.834H710.851ZM653.922 167.086H682.126C682.31 163.813 682.47 160.957 682.63 158.106C685.766 158.028 688.901 157.902 692.038 157.892C695.14 157.883 698.243 157.996 701.596 158.06C701.596 160.043 701.636 161.415 701.584 162.783C701.534 164.115 701.387 165.443 701.27 166.943C698.013 167.113 695.09 167.267 692.109 167.423C692.109 170.8 692.109 173.682 692.109 176.557H682.354V195.11C678.854 195.11 675.892 195.11 672.93 195.11C672.827 201.179 672.723 207.249 672.62 213.277H663.439C663.439 207.032 663.439 201.081 663.439 195.131C660.292 195.026 657.144 194.921 654.004 194.816V185.999H663.476C663.295 182.957 663.115 179.915 662.91 176.441H653.921L653.922 167.086ZM662.78 241.583V259.673H653.992V241.583H662.78ZM653.856 316.135H662.831V324.714H653.856V316.135ZM499.579 278.399H490.796V269.594H499.579V278.399ZM499.737 231.822H490.805V223.186H499.737V231.822ZM518.82 315.42H509.956V306.687H518.82V315.42ZM509.959 268.988V250.998H518.816V268.988H509.959ZM538.529 306.55H529.14V297.555H538.529V306.55ZM547.639 315.437H538.646C538.646 312.342 538.646 309.498 538.645 306.655C541.711 306.402 544.791 305.935 547.639 306.967V315.437ZM557.319 259.656H548.256V251.057H557.319V259.656ZM567.579 287.561V278.356C571.074 278.63 574.179 278.874 577.278 279.117C576.974 281.925 576.672 284.732 576.365 287.561L567.579 287.561ZM586.779 306.129V296.924C590.274 297.198 593.378 297.441 596.477 297.685C596.175 300.493 595.871 303.3 595.566 306.129H586.779ZM605.275 334.037H596.304V325.197H605.275V334.037ZM605.596 296.759C602.151 297.084 599.372 297.345 596.582 297.59C596.253 294.466 595.924 291.34 595.58 288.063C592.58 287.916 589.768 287.779 586.671 287.628C586.481 284.558 586.304 281.719 586.099 278.42C582.953 278.645 580.172 278.842 577.377 279.026C576.181 272.815 577.066 266.606 576.812 260.406H586.603V269.35H595.734C595.931 272.612 596.102 275.444 596.268 278.186C599.878 278.532 602.992 278.83 606.094 279.118C605.927 282.599 605.722 286.079 605.612 289.562C605.536 291.961 605.596 294.366 605.596 296.759ZM614.775 361.798H605.832V353.153H614.775V361.798ZM614.854 278.222C611.735 278.516 608.945 278.78 606.158 279.043C605.002 272.826 605.852 266.612 605.616 260.407H614.853L614.854 278.222ZM633.996 287.548H625.179V278.861H633.996V287.548ZM643.64 306.154H634.735V297.383H643.64V306.154ZM634.721 167.571H643.822V176.194H634.721V167.571ZM625.106 185.951H634.07V204.052H625.106V185.951ZM634.05 223.267V231.803C630.933 232.098 628.148 232.361 625.365 232.624C625.144 229.509 624.922 226.394 624.7 223.267H634.05ZM625.289 232.703C624.982 235.507 624.675 238.31 624.364 241.158H615.436V232.384C618.724 232.494 622.011 232.603 625.289 232.703ZM596.379 166.951C599.877 167.225 602.985 167.47 606.087 167.713C605.774 170.515 605.471 173.325 605.165 176.156H596.378L596.379 166.951ZM615.31 213.947C615.31 220.333 615.31 226.295 615.31 232.255C612.207 232.154 609.104 232.053 605.828 231.947C605.672 228.849 605.533 226.127 605.384 223.175H596.17C595.659 229.366 596.426 235.344 595.716 241.102H567.462V232.026H586.481V204.664H596.126V213.315C602.665 214.003 608.855 213.098 615.31 213.947ZM595.638 194.744H586.636V185.951C589.703 185.725 592.786 185.249 595.638 186.274V194.744ZM586.768 148.877H595.607V157.585H586.768V148.877ZM557.591 176.628C561.089 176.48 564.018 176.355 566.991 176.229C567.155 172.948 567.29 170.237 567.421 167.606C574.124 166.763 582.76 166.96 586.51 168.101C586.51 173.929 586.51 179.884 586.509 185.84H567.403C567.253 189.009 567.119 191.839 566.985 194.658C563.743 194.963 560.966 195.224 558.176 195.47C556.979 189.265 557.875 183.059 557.591 176.628ZM558.078 195.564C557.774 198.371 557.471 201.179 557.165 204.008H548.379V194.802C551.873 195.077 554.978 195.32 558.078 195.564ZM566.858 102.575V111.119C563.755 111.409 560.973 111.669 558.185 111.922C557.954 108.815 557.723 105.707 557.49 102.574L566.858 102.575ZM548.374 111.25C551.873 111.524 554.985 111.767 558.093 112.011C557.991 114.94 557.898 117.875 557.805 120.811C554.689 120.812 551.575 120.812 548.374 120.812V111.25ZM548.255 214.014H557.231V222.593H548.255V214.014ZM557.196 269.57V278.368C553.999 278.518 551.194 278.65 547.809 278.809V287.54H538.615V269.57H557.196ZM547.651 232.55V241.087C544.534 241.381 541.748 241.644 538.965 241.907C538.744 238.793 538.522 235.678 538.301 232.55H547.651ZM538.893 241.988C538.727 245.468 538.521 248.947 538.412 252.429C538.336 254.827 538.397 257.23 538.397 259.737H528.947V241.746C532.266 241.83 535.584 241.913 538.893 241.988ZM538.051 213.983V222.52C534.934 222.814 532.148 223.077 529.365 223.34C529.144 220.226 528.923 217.111 528.701 213.983H538.051ZM509.836 222.829C516.481 223.231 522.896 222.174 529.295 223.41C529.138 229.484 528.981 235.557 528.828 241.626C525.742 241.48 522.655 241.334 519.428 241.182C519.269 238.108 519.128 235.392 518.974 232.409C515.806 232.222 512.878 232.049 509.836 231.869V222.829ZM500.057 204.311C503.162 204.304 506.267 204.422 509.234 204.482V213.315H490.637V204.524C493.777 204.447 496.917 204.319 500.057 204.311ZM461.979 278.278V269.072C465.474 269.346 468.578 269.59 471.678 269.834C471.374 272.641 471.071 275.449 470.766 278.278H461.979ZM480.463 268.941C477.361 269.232 474.576 269.493 471.776 269.739C470.58 263.534 471.473 257.328 471.203 251.119H480.464L480.463 268.941ZM461.818 232.443H480.384V241.13H461.818V232.443ZM96.5668 203.953H87.468V185.904C90.6376 185.764 93.5738 185.635 96.5812 185.502C96.7515 182.269 96.8941 179.552 97.0328 176.913C103.961 175.988 141.139 176.267 144.909 177.342C144.909 180.091 144.909 182.965 144.908 185.841H106.583C106.434 189.083 106.302 191.92 106.169 194.806C102.786 194.965 99.9743 195.097 96.5673 195.257V203.953H96.5668ZM106.547 111.777C109.862 111.855 113.174 111.936 116.487 112.016C116.184 114.801 115.889 117.595 115.584 120.493H106.547V111.777ZM144.932 241.56C141.832 241.451 138.731 241.342 135.581 241.231V222.652C139.088 222.931 142.198 223.178 145.296 223.416C145.174 229.464 145.053 235.512 144.932 241.56ZM144.45 278.806V287.595H135.527V278.806H144.45ZM145.365 223.34C145.144 220.226 144.922 217.111 144.701 213.983H154.051V222.52C150.934 222.814 148.148 223.078 145.365 223.34ZM154.038 185.961V204.019H145.036V185.961H154.038ZM153.983 166.912H144.947V158.193L154.877 158.435C154.583 161.226 154.289 164.017 153.983 166.912ZM106.062 287.606H97.1127V278.967H106.062V287.606ZM125.584 246.386C125.532 247.714 125.382 249.038 125.262 250.507C122.09 250.651 119.284 250.778 116.19 250.919C116.047 253.994 115.914 256.827 115.779 259.733H106.455V250.931C102.89 250.761 100.078 250.626 97.163 250.486V241.771C105.774 240.927 122.108 241.239 125.596 242.347C125.596 243.64 125.638 245.014 125.584 246.386ZM134.787 213.556H115.808V222.55H106.794V204.586H134.787V213.556ZM144.619 361.759H135.475V353.197H144.619V361.759ZM163.624 250.509C160.458 250.658 157.652 250.791 154.267 250.951V268.997H145.045C145.045 259.703 145.045 250.688 145.045 241.672C147.985 241.51 150.927 241.349 154.119 241.173C154.321 238.099 154.507 235.263 154.695 232.412H163.623V250.509H163.624ZM154.984 158.336C154.744 155.25 154.504 152.158 154.208 148.356C161.342 148.644 167.717 148.901 174.079 149.148C173.912 149.862 173.627 150.577 173.628 151.291C173.635 159.719 173.688 168.146 173.729 176.574C170.641 176.465 167.547 176.356 163.911 176.228V157.714C160.543 157.955 157.77 158.153 154.984 158.336ZM174.168 149.07C174.029 145.916 173.89 142.762 173.751 139.608C176.831 139.204 179.903 138.943 182.856 139.798V148.25C179.742 148.544 176.954 148.807 174.168 149.07ZM164.312 195.187C167.539 195.048 170.468 194.922 173.846 194.776C173.846 188.342 173.846 182.516 173.846 176.693H183.32V204.434H192.72C192.774 210.817 192.971 216.726 192.62 222.525H183.415C183.253 219.47 183.109 216.744 182.932 213.42H164.312V195.187ZM183.406 306.487H173.977V296.923C177.486 297.202 180.597 297.449 183.695 297.686C183.598 300.619 183.502 303.553 183.406 306.487ZM192.409 306.593V315.41H183.521C183.521 312.284 183.52 309.436 183.516 306.593H192.409ZM192.91 260.11H173.944V250.715C177.274 250.715 180.269 250.691 183.264 250.721C186.359 250.752 189.454 250.835 192.91 250.901C192.91 254.379 192.91 257.248 192.91 260.11ZM193.341 269.861C193.004 272.669 192.665 275.478 192.329 278.266H173.999V269.013C180.722 269.31 187.036 269.589 193.341 269.861ZM173.815 241.126V232.444H182.794V241.126H173.815ZM164.341 325.407H173.73V334.402H164.341V325.407ZM192.435 343.292H173.846C173.846 340.201 173.846 337.357 173.845 334.513C176.986 334.43 180.126 334.295 183.267 334.284C186.369 334.274 189.472 334.395 192.435 334.455V343.292ZM192.451 296.789C189.334 297.084 186.549 297.347 183.765 297.61C183.544 294.495 183.323 291.381 183.101 288.253H192.451L192.451 296.789ZM202.049 268.896C198.937 269.227 196.164 269.523 193.393 269.818C193.276 266.619 193.158 263.419 193.04 260.221C196.102 259.988 199.178 259.535 202.05 260.537V268.896H202.049ZM211.676 250.482H202.673C202.484 247.447 202.308 244.614 202.123 241.648C198.968 241.494 196.158 241.358 193.123 241.21V232.149C198.342 232.149 203.247 232.133 208.152 232.161C209.237 232.167 210.321 232.323 211.675 232.432V250.482H211.676ZM221.207 352.544H212.368V343.836H221.207V352.544ZM221.403 315.433H212.341V306.848H221.403V315.433ZM221.45 278.275H212.374V259.79C215.868 260.063 218.976 260.306 222.079 260.549C221.918 264.346 221.745 268.144 221.603 271.942C221.524 274.042 221.5 276.143 221.45 278.275ZM222.167 260.455C221.144 257.333 221.574 254.219 221.915 251.144C229.135 250.245 246.895 250.529 250.42 251.643C250.42 254.433 250.42 257.318 250.423 260.2C243.33 260.132 236.236 260.021 229.143 260.023C226.824 260.023 224.504 260.308 222.167 260.455ZM221.873 231.897V223.224H230.901V231.897H221.873ZM260.532 260.395C259.581 257.285 259.947 254.181 260.389 250.715C263.642 250.715 266.646 250.69 269.649 250.721C272.757 250.754 275.864 250.84 278.832 250.9V259.997C276.423 259.997 274.374 259.952 272.328 260.007C268.401 260.112 264.476 260.272 260.532 260.395ZM260.403 260.526C260.145 263.328 259.887 266.13 259.629 268.939C256.527 269.233 253.747 269.496 250.968 269.759C250.83 266.611 250.691 263.463 250.552 260.314C253.836 260.385 257.12 260.455 260.403 260.526ZM250.89 269.835C250.58 272.645 250.271 275.455 249.961 278.276H241.183V269.07C244.693 269.35 247.798 269.597 250.89 269.835ZM250.135 315.424H241.151V306.682H250.135V315.424ZM259.701 371.153H250.674V362.48H259.701V371.153ZM269.28 352.607H260.308V343.936H269.28V352.607ZM278.947 287.54H260.405V278.873H278.947V287.54ZM297.965 343.379C294.734 343.517 291.93 343.637 288.714 343.774V352.498H279.202C279.202 349.259 279.179 346.352 279.208 343.445C279.24 340.445 279.322 337.445 279.38 334.587H297.965V343.379ZM298.99 269.818C298.742 266.719 298.492 263.616 298.185 259.799C302.103 260.085 305.294 260.318 308.478 260.55C308.181 263.346 307.884 266.14 307.591 268.9C304.527 269.227 301.758 269.523 298.99 269.818ZM308.13 250.848H298.74V241.852H308.13V250.848ZM308.383 324.695V315.489C311.892 315.768 314.997 316.015 318.089 316.253C317.78 319.063 317.471 321.874 317.161 324.696L308.383 324.695ZM326.851 315.357C323.734 315.652 320.949 315.915 318.165 316.178C317.944 313.063 317.722 309.948 317.5 306.821H326.851V315.357ZM336.62 287.513H327.411C327.252 284.457 327.11 281.729 326.96 278.845C323.713 278.635 320.781 278.445 317.435 278.229V259.846C314.173 260.077 311.388 260.275 308.589 260.457C308.476 257.293 308.363 254.129 308.249 250.963H327.314V269.421H336.721C336.774 275.803 336.969 281.711 336.62 287.513ZM346 315.549H337.175V306.707H346V315.549ZM337.187 250.426V241.18C343.881 241.46 350.18 241.723 356.477 241.986C356.173 244.79 355.871 247.595 355.564 250.426H337.187ZM355.593 343.247H346.615V334.565H355.593V343.247ZM393.989 306.252H385.186V288.163H393.989V306.252ZM394.238 250.419H385.046C385.046 241.12 385.046 232.111 385.045 223.101C388.104 222.84 391.18 222.412 394.598 223.586V231.965C397.953 232.112 400.862 232.239 404.11 232.38C404.11 235.816 404.11 238.684 404.11 241.543H394.238V250.419ZM404.236 241.664H413.238V259.721H404.236V241.664ZM413.335 352.559H404.351V343.817H413.335V352.559ZM422.902 296.862C419.711 297.055 416.781 297.232 413.619 297.424V306.052H404.269V288.027C407.431 287.887 410.358 287.758 413.387 287.623C413.546 284.419 413.681 281.706 413.819 278.935H422.902V296.862ZM432.537 324.983C430.519 324.983 429.095 325.018 427.674 324.973C426.298 324.929 424.924 324.802 423.606 324.715V316.024H432.538L432.537 324.983ZM451.593 333.964H442.615V325.282H451.593V333.964ZM433.16 223.124H451.724V241.167H442.682C442.482 238.092 442.296 235.257 442.107 232.346C438.895 232.193 436.084 232.059 433.16 231.92V223.124ZM432.963 288.253H442.114V296.787H432.963V288.253ZM432.558 259.699H423.576V251.006H432.558V259.699ZM423.615 186.254C423.378 192.101 423.149 197.959 422.897 204.394H413.731C413.598 207.376 413.465 210.358 413.334 213.287H404.242V204.4C401.094 204.302 397.946 204.204 394.804 204.106V195.283H404.277C404.267 192.181 404.257 189.08 404.247 185.978C410.703 186.07 417.159 186.162 423.615 186.254ZM404.129 185.862C401.046 185.862 397.96 185.862 394.547 185.862V167.462C397.627 167.051 400.7 166.809 404.129 167.77V185.862ZM385.057 148.776C388.214 148.635 391.15 148.503 394.18 148.367C394.348 145.154 394.489 142.434 394.631 139.704H403.655V157.665C400.519 157.81 397.704 157.94 394.419 158.091C394.419 161.336 394.419 164.349 394.421 167.356C391.33 167.211 388.237 167.065 385.057 166.914L385.057 148.776ZM375.54 214.001H384.93V222.997H375.54V214.001ZM375.412 260.344H394.097V269.028C390.89 269.21 387.95 269.377 384.596 269.568V278.311H356.34V260.273H365.384C365.55 263.349 365.702 266.187 365.851 268.958H374.982C375.133 265.933 375.269 263.214 375.412 260.344ZM374.868 250.472H365.873C365.681 247.423 365.502 244.583 365.294 241.285C362.157 241.509 359.381 241.706 356.591 241.889C356.443 235.647 356.296 229.405 356.149 223.162C359.222 222.746 362.29 222.534 365.75 223.452V231.954C369.114 232.109 372.031 232.244 374.868 232.375V250.472ZM374.851 185.385C371.734 185.679 368.948 185.942 366.165 186.205C365.944 183.09 365.723 179.976 365.5 176.849H374.851V185.385ZM365.243 102.59V111.159C362.125 111.413 359.341 111.638 356.552 111.857C356.339 108.761 356.126 105.665 355.915 102.59H365.243ZM346.74 139.443V130.448H356.13V139.443H346.74ZM355.622 120.475H346.636V111.695C349.895 111.792 353.154 111.888 356.413 111.985C356.146 114.784 355.887 117.592 355.622 120.475ZM337.135 148.507H355.722C355.911 145.25 356.075 142.402 356.239 139.557H365.319C365.518 142.591 365.703 145.42 365.899 148.42C369.182 148.56 372.093 148.684 374.837 148.8V157.672C371.69 157.815 368.886 157.941 365.795 158.081C365.651 161.152 365.519 163.984 365.387 166.808C362.148 167.112 359.372 167.373 356.582 167.618C356.25 164.493 355.918 161.364 355.543 157.827H337.135V148.507ZM327.573 176.248H336.549C336.744 173.013 336.913 170.186 337.111 166.903C343.896 167.188 350.188 167.452 356.477 167.716C356.174 170.519 355.872 173.323 355.556 176.244C352.458 176.386 349.649 176.515 346.252 176.671V185.514C342.837 185.676 340.03 185.81 336.634 185.972V194.709H327.573V176.248ZM317.889 213.391H326.991C327.154 210.079 327.29 207.364 327.421 204.71H337.012V213.3H346.48V194.862H355.725C355.928 191.622 356.104 188.791 356.309 185.511C359.887 185.796 362.994 186.043 366.087 186.28C365.92 187.767 365.633 189.253 365.62 190.741C365.566 197.061 365.616 203.382 365.579 209.702C365.572 210.88 365.339 212.055 365.195 213.371C362.089 213.515 359.281 213.646 356.02 213.798C356.02 217.054 356.02 220.063 356.024 223.065H346.151V231.818H327.404C327.252 228.772 327.116 226.046 326.971 223.141C323.731 222.938 320.798 222.755 317.889 222.573V213.391ZM308.251 185.937H317.324V203.963H298.807C297.966 197.311 298.234 179.806 299.147 176.763H307.807C307.958 179.877 308.095 182.7 308.251 185.937ZM298.611 157.518V148.851H307.628V166.895H289.036V158.103C292.091 157.916 295.15 157.729 298.611 157.518ZM289.698 269.103C292.718 269.352 295.832 269.61 298.94 269.859C298.756 271.353 298.43 272.846 298.422 274.34C298.373 283.453 298.407 292.567 298.387 301.68C298.384 303.161 298.247 304.641 298.171 306.115H289.292C288.387 300.218 288.631 272.756 289.698 269.103ZM279.416 176.742H288.394V185.424H279.416V176.742ZM279.257 232.163C282.362 232.155 285.467 232.273 288.434 232.333V241.166H269.836V232.376C272.977 232.298 276.117 232.171 279.257 232.163ZM260.352 176.711H269.223V185.554H260.352V176.711ZM250.649 213.568C257.075 213.745 263.19 213.25 269.711 213.903C269.711 220.324 269.711 226.293 269.71 232.258H259.793V241.103H241.057V223.048C244.216 222.906 247.151 222.774 250.182 222.638C250.347 219.428 250.487 216.71 250.649 213.568ZM250.063 204.442H230.98V213.336H221.879C221.681 210.285 221.498 207.447 221.306 204.491C218.132 204.346 215.318 204.217 212.246 204.076C212.246 200.946 212.246 198.098 212.246 195.251C222.007 194.463 246.681 194.809 250.063 195.78V204.442ZM212.057 167.426H231.482C231.177 164.283 230.732 161.133 231.895 157.677C235.125 157.936 238.209 158.182 241.292 158.429C241.163 161.411 241.044 164.401 240.925 167.391H250.032V185.464H231.439C231.439 182.33 231.439 179.446 231.439 176.563H221.468V185.411C218.108 185.683 215.325 185.91 212.541 186.127C211.43 179.955 212.213 173.783 212.057 167.426ZM202.772 185.533C206.243 185.79 209.334 186.019 212.419 186.247C212.318 189.207 212.226 192.174 212.133 195.142C209.034 195.032 205.936 194.922 202.772 194.811V185.533ZM202.052 158.126V176.19H192.879V167.373C189.319 167.208 186.509 167.078 183.549 166.941V158.126H202.052ZM164.384 101.925C171.081 102.204 177.386 102.467 183.689 102.729C183.519 106.521 183.346 110.321 183.202 114.121C183.122 116.217 183.09 118.316 183.035 120.451H164.384V101.925ZM173.62 130.978C173.62 133.765 173.62 136.64 173.625 139.511C164.169 139.395 154.713 139.278 145.174 139.161V130.346C154.415 129.495 170.133 129.822 173.62 130.978ZM135.201 102.568H144.969V111.271C148.345 111.421 151.265 111.552 154.035 111.676V120.741C151.313 120.741 148.947 120.683 146.585 120.754C142.974 120.863 139.366 121.059 135.756 121.219C134.601 115.008 135.463 108.798 135.201 102.568ZM125.7 120.512C129.466 120.81 132.581 121.057 135.68 121.293C135.513 122.316 135.226 123.338 135.221 124.363C135.178 131.295 135.184 138.227 135.215 145.159C135.219 146.183 135.435 147.206 135.6 148.641H144.82C144.82 152.07 144.82 155.079 144.824 158.079H135.021V166.878H125.876C125.676 163.793 125.494 160.968 125.306 158.076C122.074 157.922 119.272 157.788 116.245 157.643C116.245 154.51 116.245 151.672 116.244 148.835C119.191 148.67 122.145 148.505 125.7 148.307V120.512ZM116.002 93.2952H125.263V111.118C122.158 111.409 119.372 111.671 116.578 111.924C115.378 105.716 116.273 99.5075 116.002 93.2952ZM87.4546 148.768C90.6118 148.631 93.547 148.504 96.908 148.359V130.131C103.491 130.012 109.597 129.902 116.129 130.188V148.727H106.198V157.554H87.4546V148.768ZM87.4153 306.714H96.3941V315.396H87.4153V306.714ZM87.0355 269.679V278.327H77.9084V269.679H87.0355ZM58.7958 130.009V111.204C65.4934 111.485 71.7868 111.749 78.0777 112.013C77.2567 114.821 77.4567 117.613 78.049 120.836H86.814V139.016H77.5821V130.008L58.7958 130.009ZM77.2381 157.609H68.2363V148.816C71.3031 148.589 74.3861 148.113 77.2381 149.139V157.609ZM86.8508 167.565V176.101C83.7357 176.396 80.9512 176.658 78.1701 176.921C77.9442 173.803 77.7227 170.69 77.5007 167.565H86.8508ZM77.8481 251.047H86.9288V259.664H77.8481V251.047ZM68.3066 213.789H77.2787V222.634H68.3066V213.789ZM68.3066 334.478H77.2787V343.323H68.3066V334.478ZM48.3971 343.251H39.5795V334.564H48.3966L48.3971 343.251ZM58.0074 315.409H49.1688V306.7H58.0079L58.0074 315.409ZM67.6378 279.111V287.581H58.6365V278.788C61.7033 278.562 64.7858 278.086 67.6378 279.111ZM58.5102 260.328C58.5102 266.737 58.5102 272.707 58.5093 278.673C55.4033 278.571 52.2958 278.468 49.0377 278.361C48.8721 275.251 48.7267 272.523 48.5683 269.558C45.3781 269.359 42.4372 269.175 39.4766 268.991V259.99C45.8647 260.163 51.981 259.663 58.5102 260.328ZM39.579 194.803C43.0821 195.077 46.1867 195.321 49.2874 195.565C48.9745 198.367 48.6712 201.176 48.3655 204.008H39.579V194.803ZM39.4762 232.5H58.2126V241.077H39.4762V232.5ZM29.2783 259.769H20.3067V250.925H29.2783V259.769ZM38.7934 296.829H29.8156V288.147H38.7934V296.829ZM38.935 222.587H29.951V213.845H38.935V222.587ZM38.8379 176.99V185.46H29.8366V176.667C32.9034 176.441 35.986 175.964 38.8379 176.99ZM10.7662 176.556V166.988H20.1201V148.381C23.8328 148.655 26.9306 148.884 30.0194 149.111C29.9113 158.254 29.8113 167.406 29.7118 176.556H10.7662ZM10.7265 269.522H19.6493V278.311H10.7265V269.522Z" fill="white"/>
</svg>
