<svg width="1360" height="99" viewBox="0 0 1360 99" fill="none" xmlns="http://www.w3.org/2000/svg">
<path d="M1340.43 32.0627H1358.62V50.9628H1340.43V62.1004H1360V81.0005H1330.64V2.25H1360V21.1501H1340.43V32.0627Z" fill="white"/>
<path d="M1324.87 81.0005H1315.09V32.9627L1301.45 81.0005H1290.34V2.25H1300.12V50.2878L1313.77 2.25H1324.87V81.0005Z" fill="white"/>
<path d="M1250.03 81.0005V2.25H1259.82V32.0627H1274.78V2.25H1284.57V81.0005H1274.78V50.9628H1259.82V81.0005H1250.03Z" fill="white"/>
<path d="M1213.38 47.5878H1234.97V65.3629H1213.38V47.5878ZM1213.73 81.0005H1202.44L1217.52 2.25H1230.42L1245.62 81.0005H1234.33L1224.14 21.8251L1213.73 81.0005Z" fill="white"/>
<path d="M1185.85 21.1501H1175.66V32.4002H1185.85C1186.66 32.4002 1187.35 31.8377 1187.93 30.7127C1188.5 29.5127 1188.79 28.0877 1188.79 26.4377C1188.79 24.8626 1188.52 23.5876 1187.98 22.6126C1187.45 21.6376 1186.74 21.1501 1185.85 21.1501ZM1185.85 50.6253H1175.66V62.1004H1186.43C1187.27 62.1004 1187.96 61.5754 1188.5 60.5254C1189.08 59.4754 1189.36 58.1628 1189.36 56.5878C1189.36 54.8628 1189.02 53.4378 1188.33 52.3128C1187.68 51.1878 1186.85 50.6253 1185.85 50.6253ZM1187.12 81.0005H1165.88V2.25H1186.54C1190.04 2.25 1192.91 4.23752 1195.18 8.21254C1197.44 12.1876 1198.57 17.2501 1198.57 23.4001C1198.57 27.0752 1198.13 30.5252 1197.25 33.7502C1196.41 36.9752 1195.26 39.4502 1193.8 41.1752C1195.45 42.9753 1196.75 45.5253 1197.71 48.8253C1198.67 52.0503 1199.15 55.6128 1199.15 59.5129C1199.15 65.6629 1198 70.8004 1195.7 74.9255C1193.43 78.9755 1190.57 81.0005 1187.12 81.0005Z" fill="white"/>
<path d="M1129.15 41.2878C1129.15 47.8878 1130.22 53.3253 1132.37 57.6003C1134.52 61.8004 1137.17 63.9004 1140.32 63.9004C1143.46 63.9004 1146.11 61.8004 1148.26 57.6003C1150.41 53.3253 1151.48 47.8878 1151.48 41.2878C1151.48 34.8377 1150.39 29.5502 1148.2 25.4252C1146.05 21.2251 1143.42 19.1251 1140.32 19.1251C1137.21 19.1251 1134.56 21.2251 1132.37 25.4252C1130.22 29.5502 1129.15 34.8377 1129.15 41.2878ZM1119.36 41.2878C1119.36 29.2877 1121.38 19.4251 1125.41 11.7001C1129.48 3.90003 1134.44 0 1140.32 0C1146.19 0 1151.14 3.90003 1155.17 11.7001C1159.24 19.4251 1161.27 29.2877 1161.27 41.2878C1161.27 53.3628 1159.24 63.3379 1155.17 71.2129C1151.14 79.088 1146.19 83.0255 1140.32 83.0255C1134.44 83.0255 1129.48 79.088 1125.41 71.2129C1121.38 63.3379 1119.36 53.3628 1119.36 41.2878Z" fill="white"/>
<path d="M1080.21 81.0005V2.25H1089.99V32.0627H1104.96V2.25H1114.75V81.0005H1104.96V50.9628H1089.99V81.0005H1080.21Z" fill="white"/>
<path d="M1062.29 21.1501H1052.11V32.4002H1062.29C1063.1 32.4002 1063.79 31.8377 1064.37 30.7127C1064.94 29.5127 1065.23 28.0877 1065.23 26.4377C1065.23 24.8626 1064.96 23.5876 1064.42 22.6126C1063.89 21.6376 1063.18 21.1501 1062.29 21.1501ZM1062.29 50.6253H1052.11V62.1004H1062.87C1063.71 62.1004 1064.41 61.5754 1064.94 60.5254C1065.52 59.4754 1065.81 58.1628 1065.81 56.5878C1065.81 54.8628 1065.46 53.4378 1064.77 52.3128C1064.12 51.1878 1063.29 50.6253 1062.29 50.6253ZM1063.56 81.0005H1042.32V2.25H1062.99C1066.48 2.25 1069.36 4.23752 1071.62 8.21254C1073.88 12.1876 1075.02 17.2501 1075.02 23.4001C1075.02 27.0752 1074.57 30.5252 1073.69 33.7502C1072.85 36.9752 1071.7 39.4502 1070.24 41.1752C1071.89 42.9753 1073.19 45.5253 1074.15 48.8253C1075.11 52.0503 1075.59 55.6128 1075.59 59.5129C1075.59 65.6629 1074.44 70.8004 1072.14 74.9255C1069.87 78.9755 1067.01 81.0005 1063.56 81.0005Z" fill="white"/>
<path d="M1017.87 32.0627H1036.06V50.9628H1017.87V62.1004H1037.44V81.0005H1008.09V2.25H1037.44V21.1501H1017.87V32.0627Z" fill="white"/>
<path d="M987.972 21.1501H980.546V40.5002H987.972C989.584 40.5002 990.927 39.5627 992.002 37.6877C993.114 35.7377 993.671 33.3752 993.671 30.6002C993.671 27.9002 993.134 25.6501 992.059 23.8501C990.985 22.0501 989.622 21.1501 987.972 21.1501ZM987.972 59.4004H980.546V81.0005H970.761V2.25H988.548C992.807 2.25 996.357 4.95002 999.197 10.3501C1002.04 15.7501 1003.46 22.5001 1003.46 30.6002C1003.46 38.6252 1001.96 45.4503 998.967 51.0753C995.973 56.6253 992.309 59.4004 987.972 59.4004Z" fill="white"/>
<path d="M934.03 41.2878C934.03 47.8878 935.105 53.3253 937.254 57.6003C939.403 61.8004 942.051 63.9004 945.198 63.9004C948.344 63.9004 950.992 61.8004 953.141 57.6003C955.29 53.3253 956.365 47.8878 956.365 41.2878C956.365 34.8377 955.271 29.5502 953.084 25.4252C950.935 21.2251 948.306 19.1251 945.198 19.1251C942.089 19.1251 939.441 21.2251 937.254 25.4252C935.105 29.5502 934.03 34.8377 934.03 41.2878ZM924.245 41.2878C924.245 29.2877 926.259 19.4251 930.289 11.7001C934.357 3.90003 939.326 0 945.198 0C951.069 0 956.02 3.90003 960.049 11.7001C964.117 19.4251 966.151 29.2877 966.151 41.2878C966.151 53.3628 964.117 63.3379 960.049 71.2129C956.02 79.088 951.069 83.0255 945.198 83.0255C939.326 83.0255 934.357 79.088 930.289 71.2129C926.259 63.3379 924.245 53.3628 924.245 41.2878Z" fill="white"/>
<path d="M882.205 62.6629C880.363 56.2878 879.442 49.2378 879.442 41.5128C879.442 33.7877 880.363 26.7752 882.205 20.4751C884.047 14.1001 886.58 9.11256 889.803 5.51254C893.027 1.83751 896.596 0 900.51 0C904.885 0 908.837 2.36252 912.368 7.08755C915.937 11.7376 918.642 18.1126 920.484 26.2127L910.584 32.9627C909.663 28.6127 908.3 25.2376 906.497 22.8376C904.693 20.3626 902.678 19.1251 900.452 19.1251C897.267 19.1251 894.6 21.3001 892.451 25.6502C890.302 29.9252 889.228 35.2127 889.228 41.5128C889.228 47.8128 890.302 53.1378 892.451 57.4878C894.6 61.7629 897.248 63.9004 900.395 63.9004C902.736 63.9004 904.827 62.5879 906.669 59.9629C908.511 57.3378 909.893 53.7003 910.814 49.0503L920.772 55.6878C919.007 64.0879 916.301 70.7629 912.656 75.713C909.049 80.588 905 83.0255 900.51 83.0255C896.596 83.0255 893.027 81.2255 889.803 77.6255C886.58 73.9504 884.047 68.9629 882.205 62.6629Z" fill="white"/>
<path d="M816.383 81.0005V2.25H827.608L838.142 43.3128L848.676 2.25H859.901V81.0005H850.115V33.5252L841.193 69.3004H835.148L826.169 33.5252V81.0005H816.383Z" fill="white"/>
<path d="M792.51 32.0627H810.7V50.9628H792.51V62.1004H812.082V81.0005H782.725V2.25H812.082V21.1501H792.51V32.0627Z" fill="white"/>
<path d="M776.97 2.25V81.0005H767.184V2.25H776.97ZM754.06 2.25V26.2127C754.06 30.3377 754.654 33.6002 755.844 36.0002C757.072 38.3252 758.646 39.4877 760.564 39.4877C762.368 39.4877 763.922 38.4002 765.227 36.2252C766.532 34.0502 767.184 31.4627 767.184 28.4627H770.523C770.523 36.7877 769.256 43.7253 766.724 49.2753C764.191 54.7503 761.025 57.4878 757.226 57.4878C753.465 57.4878 750.356 55.1253 747.9 50.4003C745.483 45.6753 744.274 39.1127 744.274 30.7127V2.25H754.06Z" fill="white"/>
<path d="M713.889 60.75L723.905 64.0125L720.221 99.0002L712.393 96.6377L713.889 60.75Z" fill="white"/>
<path d="M688.29 32.0627H706.48V50.9628H688.29V62.1004H707.861V81.0005H678.504V2.25H707.861V21.1501H688.29V32.0627Z" fill="white"/>
<path d="M672.721 81.0005H622.065V2.25H631.851V62.1004H642.615V2.25H652.401V62.1004H662.935V2.25H672.721V81.0005Z" fill="white"/>
<path d="M590.252 2.25V28.3502H603.434C607.272 28.3502 610.514 30.8627 613.162 35.8877C615.848 40.9127 617.192 47.0628 617.192 54.3378C617.192 61.9879 615.925 68.3629 613.392 73.4629C610.898 78.488 607.77 81.0005 604.01 81.0005H580.466V2.25H590.252ZM603.434 62.1004C604.585 62.1004 605.525 61.3879 606.255 59.9629C607.022 58.4628 607.406 56.5878 607.406 54.3378C607.406 52.3128 607.022 50.6253 606.255 49.2753C605.487 47.9253 604.547 47.2503 603.434 47.2503H590.252V62.1004H603.434Z" fill="white"/>
<path d="M537.981 63.2254C540.514 63.2254 542.471 61.6879 543.852 58.6128C545.234 55.4628 545.925 51.4878 545.925 46.6878V2.25H574.706V81.0005H564.92V20.0251H555.71V50.5128C555.71 58.7628 554.156 65.9254 551.048 72.0004C547.978 78.0005 544.006 81.0005 539.132 81.0005H536.312V63.2254H537.981Z" fill="white"/>
<path d="M500.732 41.2878C500.732 47.8878 501.807 53.3253 503.956 57.6003C506.105 61.8004 508.752 63.9004 511.899 63.9004C515.046 63.9004 517.694 61.8004 519.843 57.6003C521.992 53.3253 523.067 47.8878 523.067 41.2878C523.067 34.8377 521.973 29.5502 519.785 25.4252C517.636 21.2251 515.008 19.1251 511.899 19.1251C508.791 19.1251 506.143 21.2251 503.956 25.4252C501.807 29.5502 500.732 34.8377 500.732 41.2878ZM490.946 41.2878C490.946 29.2877 492.961 19.4251 496.99 11.7001C501.058 3.90003 506.028 0 511.899 0C517.771 0 522.721 3.90003 526.751 11.7001C530.818 19.4251 532.852 29.2877 532.852 41.2878C532.852 53.3628 530.818 63.3379 526.751 71.2129C522.721 79.088 517.771 83.0255 511.899 83.0255C506.028 83.0255 501.058 79.088 496.99 71.2129C492.961 63.3379 490.946 53.3628 490.946 41.2878Z" fill="white"/>
<path d="M473.454 31.7252C477.214 31.7252 480.4 34.1627 483.009 39.0377C485.619 43.8378 486.923 49.6878 486.923 56.5878C486.923 63.5629 485.695 69.3754 483.239 74.0254C480.783 78.6755 477.713 81.0005 474.029 81.0005H451.062V2.25H479.958V21.0376H460.847V31.7252H473.454ZM473.454 62.1004C474.528 62.1004 475.411 61.5754 476.102 60.5254C476.792 59.4754 477.138 58.1628 477.138 56.5878C477.138 54.8628 476.773 53.4378 476.044 52.3128C475.353 51.1878 474.49 50.6253 473.454 50.6253H460.847V62.1004H473.454Z" fill="white"/>
<path d="M431.222 42.748V59.2856H381.66V42.748H431.222Z" fill="white"/>
<path d="M343.303 32.0627H361.493V50.9628H343.303V81.0005H333.518V2.25H362.875V21.1501H343.303V32.0627Z" fill="white"/>
<path d="M329.303 2.25V21.1501H317.791V81.0005H308.005V21.1501H296.492V2.25H329.303Z" fill="white"/>
<path d="M257.16 62.6629C255.318 56.2878 254.397 49.2378 254.397 41.5128C254.397 33.7877 255.318 26.7752 257.16 20.4751C259.003 14.1001 261.535 9.11256 264.759 5.51254C267.982 1.83751 271.551 0 275.466 0C279.84 0 283.793 2.36252 287.324 7.08755C290.893 11.7376 293.598 18.1126 295.44 26.2127L285.539 32.9627C284.618 28.6127 283.256 25.2376 281.452 22.8376C279.649 20.3626 277.634 19.1251 275.408 19.1251C272.223 19.1251 269.556 21.3001 267.407 25.6502C265.258 29.9252 264.183 35.2127 264.183 41.5128C264.183 47.8128 265.258 53.1378 267.407 57.4878C269.556 61.7629 272.204 63.9004 275.35 63.9004C277.691 63.9004 279.783 62.5879 281.625 59.9629C283.467 57.3378 284.848 53.7003 285.769 49.0503L295.728 55.6878C293.963 64.0879 291.257 70.7629 287.611 75.713C284.004 80.588 279.956 83.0255 275.466 83.0255C271.551 83.0255 267.982 81.2255 264.759 77.6255C261.535 73.9504 259.003 68.9629 257.16 62.6629Z" fill="white"/>
<path d="M253.247 2.25V21.1501H241.734V81.0005H231.948V21.1501H220.436V2.25H253.247Z" fill="white"/>
<path d="M202.962 51.0749C198.549 49.7249 195.095 46.7999 192.601 42.2999C190.145 37.7248 188.917 32.0623 188.917 25.3123C188.917 18.1122 190.241 12.2247 192.889 7.64965C195.536 3.07462 198.933 0.787109 203.077 0.787109C206.646 0.787109 209.87 2.54962 212.748 6.07464C215.626 9.59966 217.698 14.3247 218.965 20.2497L209.409 26.8873C208.872 24.4123 208.047 22.4622 206.934 21.0372C205.859 19.6122 204.67 18.8997 203.365 18.8997C202.137 18.8997 201.12 19.4997 200.314 20.6997C199.547 21.8247 199.163 23.2873 199.163 25.0873C199.163 26.8123 199.604 28.1998 200.487 29.2498C201.408 30.2998 202.866 31.1248 204.862 31.7248C209.352 33.2248 212.882 36.3373 215.453 41.0624C218.024 45.7874 219.31 51.5249 219.31 58.275C219.31 65.325 217.929 71.1 215.165 75.6001C212.441 80.0251 208.929 82.2376 204.631 82.2376C201.062 82.2376 197.82 80.6251 194.903 77.4001C191.987 74.1001 189.876 69.7125 188.571 64.2375L198.127 55.3499C198.702 58.05 199.566 60.1875 200.717 61.7625C201.868 63.3375 203.135 64.125 204.516 64.125C205.821 64.125 206.896 63.5625 207.74 62.4375C208.584 61.2375 209.006 59.7 209.006 57.825C209.006 54.4499 206.992 52.1999 202.962 51.0749Z" fill="white"/>
<path d="M154.982 47.5878H176.569V65.3629H154.982V47.5878ZM155.328 81.0005H144.045L159.127 2.25H172.021L187.218 81.0005H175.935L165.747 21.8251L155.328 81.0005Z" fill="white"/>
<path d="M120.921 32.0627H139.11V50.9628H120.921V62.1004H140.492V81.0005H111.135V2.25H140.492V21.1501H120.921V32.0627Z" fill="white"/>
<path d="M91.0205 21.1501H83.5948V36.0002H91.0205C92.4787 36.0002 93.6876 35.2877 94.647 33.8627C95.6447 32.3627 96.1436 30.5627 96.1436 28.4627C96.1436 26.3626 95.6447 24.6376 94.647 23.2876C93.6876 21.8626 92.4787 21.1501 91.0205 21.1501ZM97.41 52.4253L106.505 81.0005H95.3377L86.991 54.6753H83.5948V81.0005H73.8091V2.25H91.5961C95.9709 2.25 99.5398 4.68751 102.303 9.56254C105.104 14.3626 106.505 20.8501 106.505 29.0252C106.505 34.8002 105.661 39.8252 103.972 44.1003C102.322 48.3753 100.135 51.1503 97.41 52.4253Z" fill="white"/>
<path d="M37.1577 47.5878H58.7439V65.3629H37.1577V47.5878ZM37.5031 81.0005H26.2207L41.3023 2.25H54.1964L69.3931 81.0005H58.1107L47.922 21.8251L37.5031 81.0005Z" fill="white"/>
<path d="M9.78574 32.0627H27.9757V50.9628H9.78574V81.0005H0V2.25H29.3572V21.1501H9.78574V32.0627Z" fill="white"/>
</svg>
