<svg width="40" height="51" viewBox="0 0 40 51" fill="none" xmlns="http://www.w3.org/2000/svg">
<path d="M27.0452 16.8115L23.2736 28.3615H11.5908L15.3624 16.8115L20.4448 0.930308H26.2862H29.9588H32.2085L27.0452 16.8115ZM0 0H11.5908V40.0032H0V0ZM40 40.0032H23.2736V28.3615H40V40.0032Z" fill="#4000FF"/>
<path d="M23.3743 28.293V30.7044H14.8208L15.8584 28.293H23.3743ZM11.5225 30.7044H14.8208V33.0065H22.3621L23.3743 35.2904V37.5924L22.3621 40.0039H15.8584L14.8208 37.5924H20.1604V35.2904H14.8208V40.0039H11.5225V30.7044Z" fill="white"/>
<path d="M21.2779 22.4481L23.1548 28.292H20.2352L18.335 22.4481H21.2779ZM11.5225 16.5811H14.4653V28.292H11.5225V16.5811ZM17.2923 16.5811H20.212L18.335 22.4481L17.385 25.3816H14.4653L15.3922 22.4481L17.2923 16.5811Z" fill="white"/>
<path d="M37.2559 48.2168H37.5614V49.1099H38.42C38.722 49.1099 38.9625 49.1922 39.1416 49.3568C39.3207 49.5214 39.4103 49.7421 39.4103 50.0187C39.4103 50.2989 39.3207 50.5213 39.1416 50.6859C38.9625 50.8506 38.722 50.9329 38.42 50.9329H37.2559V48.2168ZM38.4147 50.6439C38.6289 50.6439 38.7975 50.5879 38.9204 50.4758C39.0433 50.3637 39.1047 50.2114 39.1047 50.0187C39.1047 49.8261 39.0433 49.6738 38.9204 49.5617C38.7975 49.4496 38.6289 49.3936 38.4147 49.3936H37.5614V50.6439H38.4147Z" fill="white"/>
<path d="M35.1588 48.5005H34.0947V48.2168H36.5283V48.5005H35.4643V50.9329H35.1588V48.5005Z" fill="white"/>
<path d="M32.4321 51.0001C32.1617 51.0001 31.9212 50.9388 31.7105 50.8162C31.4998 50.6937 31.3347 50.5255 31.2153 50.3119C31.0994 50.0948 31.0415 49.8478 31.0415 49.5712C31.0415 49.2945 31.0994 49.0493 31.2153 48.8357C31.3347 48.6185 31.4998 48.4504 31.7105 48.3313C31.9212 48.2088 32.1617 48.1475 32.4321 48.1475C32.7552 48.1475 33.0396 48.2368 33.2855 48.4154C33.5313 48.5905 33.6928 48.8252 33.7701 49.1194H33.4593C33.3715 48.9057 33.2363 48.7394 33.0537 48.6203C32.8746 48.5012 32.6674 48.4417 32.4321 48.4417C32.2214 48.4417 32.0335 48.4889 31.8685 48.5835C31.7035 48.6781 31.5753 48.8112 31.484 48.9828C31.3927 49.1544 31.347 49.3505 31.347 49.5712C31.347 49.7918 31.3927 49.9879 31.484 50.1596C31.5753 50.3312 31.7035 50.466 31.8685 50.5641C32.0335 50.6586 32.2214 50.7059 32.4321 50.7059C32.6815 50.7059 32.8974 50.6411 33.08 50.5115C33.2661 50.382 33.3978 50.2051 33.4751 49.9809H33.7964C33.7051 50.2996 33.5383 50.5501 33.296 50.7322C33.0537 50.9108 32.7657 51.0001 32.4321 51.0001Z" fill="white"/>
<path d="M29.0021 51.0001C28.7247 51.0001 28.4771 50.9406 28.2594 50.8215C28.0417 50.6989 27.8713 50.529 27.7484 50.3119C27.629 50.0948 27.5693 49.8478 27.5693 49.5712C27.5693 49.2945 27.629 49.0493 27.7484 48.8357C27.8713 48.6185 28.0417 48.4504 28.2594 48.3313C28.4771 48.2088 28.7247 48.1475 29.0021 48.1475C29.2795 48.1475 29.5253 48.2088 29.7395 48.3313C29.9573 48.4504 30.1258 48.6185 30.2452 48.8357C30.3681 49.0493 30.4296 49.2945 30.4296 49.5712C30.4296 49.8478 30.3681 50.0948 30.2452 50.3119C30.1258 50.529 29.9573 50.6989 29.7395 50.8215C29.5253 50.9406 29.2795 51.0001 29.0021 51.0001ZM27.8749 49.5712C27.8749 49.7918 27.9223 49.9879 28.0171 50.1596C28.1119 50.3312 28.2436 50.466 28.4121 50.5641C28.5842 50.6586 28.7809 50.7059 29.0021 50.7059C29.2198 50.7059 29.413 50.6586 29.5815 50.5641C29.7536 50.466 29.887 50.3312 29.9818 50.1596C30.0767 49.9879 30.1241 49.7918 30.1241 49.5712C30.1241 49.3505 30.0767 49.1544 29.9818 48.9828C29.887 48.8112 29.7536 48.6781 29.5815 48.5835C29.413 48.4889 29.2198 48.4417 29.0021 48.4417C28.7809 48.4417 28.5842 48.4889 28.4121 48.5835C28.2436 48.6781 28.1119 48.8112 28.0171 48.9828C27.9223 49.1544 27.8749 49.3505 27.8749 49.5712Z" fill="white"/>
<path d="M26.4153 49.7035H24.6244V50.9329H24.3188V48.2168H24.6244V49.4146H26.4153V48.2168H26.7208V50.9329H26.4153V49.7035Z" fill="white"/>
<path d="M22.1235 51.0001C21.8531 51.0001 21.6126 50.9388 21.4019 50.8162C21.1912 50.6937 21.0261 50.5255 20.9067 50.3119C20.7909 50.0948 20.7329 49.8478 20.7329 49.5712C20.7329 49.2945 20.7909 49.0493 20.9067 48.8357C21.0261 48.6185 21.1912 48.4504 21.4019 48.3313C21.6126 48.2088 21.8531 48.1475 22.1235 48.1475C22.4466 48.1475 22.731 48.2368 22.9769 48.4154C23.2227 48.5905 23.3842 48.8252 23.4615 49.1194H23.1507C23.0629 48.9057 22.9277 48.7394 22.7451 48.6203C22.566 48.5012 22.3588 48.4417 22.1235 48.4417C21.9128 48.4417 21.725 48.4889 21.5599 48.5835C21.3949 48.6781 21.2667 48.8112 21.1754 48.9828C21.0841 49.1544 21.0384 49.3505 21.0384 49.5712C21.0384 49.7918 21.0841 49.9879 21.1754 50.1596C21.2667 50.3312 21.3949 50.466 21.5599 50.5641C21.725 50.6586 21.9128 50.7059 22.1235 50.7059C22.3729 50.7059 22.5888 50.6411 22.7714 50.5115C22.9575 50.382 23.0892 50.2051 23.1665 49.9809H23.4878C23.3965 50.2996 23.2297 50.5501 22.9874 50.7322C22.7451 50.9108 22.4571 51.0001 22.1235 51.0001Z" fill="white"/>
<path d="M18.5364 50.9738C18.2204 50.9738 17.9693 50.902 17.7832 50.7585C17.6006 50.6114 17.5093 50.4135 17.5093 50.1648C17.5093 49.9231 17.5936 49.7323 17.7621 49.5922C17.9307 49.4486 18.1554 49.3768 18.4364 49.3768H19.6373V49.1824C19.6373 48.9547 19.5601 48.7726 19.4056 48.636C19.2546 48.4994 19.0527 48.4312 18.7998 48.4312C18.5961 48.4312 18.4188 48.4802 18.2678 48.5782C18.1168 48.6728 18.0132 48.8024 17.957 48.967H17.6462C17.713 48.7148 17.8482 48.5152 18.0518 48.3681C18.259 48.221 18.5066 48.1475 18.7945 48.1475C19.0193 48.1475 19.2177 48.1912 19.3898 48.2788C19.5654 48.3629 19.7006 48.4819 19.7954 48.636C19.8937 48.7901 19.9429 48.967 19.9429 49.1666V50.9318H19.69L19.6584 50.4643C19.539 50.6289 19.3827 50.7549 19.1896 50.8425C18.9965 50.9301 18.7787 50.9738 18.5364 50.9738ZM17.8148 50.1596C17.8148 50.3242 17.8798 50.4555 18.0097 50.5536C18.1431 50.6516 18.3222 50.7007 18.547 50.7007C18.7542 50.7007 18.9403 50.6604 19.1053 50.5798C19.2739 50.4993 19.4056 50.3872 19.5004 50.2436C19.5952 50.1 19.6426 49.9389 19.6426 49.7603V49.6447H18.4469C18.2608 49.6447 18.108 49.692 17.9886 49.7866C17.8727 49.8811 17.8148 50.0054 17.8148 50.1596Z" fill="white"/>
<path d="M14.1953 48.2168H16.5973V50.9329H16.2918V48.5005H14.5008V50.9329H14.1953V48.2168Z" fill="white"/>
<path d="M11.9186 51.0001C11.6412 51.0001 11.3936 50.9406 11.1759 50.8215C10.9582 50.6989 10.7878 50.529 10.6649 50.3119C10.5455 50.0948 10.4858 49.8478 10.4858 49.5712C10.4858 49.2945 10.5455 49.0493 10.6649 48.8357C10.7878 48.6185 10.9582 48.4504 11.1759 48.3313C11.3936 48.2088 11.6412 48.1475 11.9186 48.1475C12.196 48.1475 12.4418 48.2088 12.656 48.3313C12.8738 48.4504 13.0423 48.6185 13.1617 48.8357C13.2846 49.0493 13.3461 49.2945 13.3461 49.5712C13.3461 49.8478 13.2846 50.0948 13.1617 50.3119C13.0423 50.529 12.8738 50.6989 12.656 50.8215C12.4418 50.9406 12.196 51.0001 11.9186 51.0001ZM10.7914 49.5712C10.7914 49.7918 10.8388 49.9879 10.9336 50.1596C11.0284 50.3312 11.1601 50.466 11.3286 50.5641C11.5007 50.6586 11.6974 50.7059 11.9186 50.7059C12.1363 50.7059 12.3295 50.6586 12.498 50.5641C12.6701 50.466 12.8035 50.3312 12.8983 50.1596C12.9932 49.9879 13.0406 49.7918 13.0406 49.5712C13.0406 49.3505 12.9932 49.1544 12.8983 48.9828C12.8035 48.8112 12.6701 48.6781 12.498 48.5835C12.3295 48.4889 12.1363 48.4417 11.9186 48.4417C11.6974 48.4417 11.5007 48.4889 11.3286 48.5835C11.1601 48.6781 11.0284 48.8112 10.9336 48.9828C10.8388 49.1544 10.7914 49.3505 10.7914 49.5712Z" fill="white"/>
<path d="M8.76923 51.0001C8.43562 51.0001 8.16698 50.9231 7.9633 50.769C7.76314 50.6114 7.65428 50.3977 7.63672 50.128H7.94223C7.9633 50.3172 8.04232 50.4625 8.17927 50.5641C8.31974 50.6621 8.51639 50.7112 8.76923 50.7112C9.01153 50.7112 9.20292 50.6656 9.34339 50.5746C9.48385 50.48 9.55408 50.3539 9.55408 50.1963C9.55408 50.0457 9.49087 49.9249 9.36446 49.8338C9.23804 49.7428 9.06948 49.6972 8.85878 49.6972H8.35837V49.4136H8.85878C9.04138 49.4136 9.18712 49.3698 9.29598 49.2822C9.40484 49.1947 9.45927 49.0773 9.45927 48.9302C9.45927 48.7761 9.39606 48.6553 9.26964 48.5677C9.14673 48.4802 8.97817 48.4364 8.76396 48.4364C8.5357 48.4364 8.35134 48.4854 8.21087 48.5835C8.07392 48.6781 7.99666 48.8077 7.97911 48.9723H7.67359C7.69115 48.7236 7.79826 48.524 7.99491 48.3734C8.19507 48.2228 8.45142 48.1475 8.76396 48.1475C9.06596 48.1475 9.30827 48.2175 9.49088 48.3576C9.67699 48.4942 9.77005 48.6763 9.77005 48.904C9.77005 49.0441 9.73318 49.1701 9.65944 49.2822C9.58569 49.3943 9.48561 49.4801 9.35919 49.5396C9.5137 49.5957 9.63661 49.685 9.72791 49.8076C9.82273 49.9266 9.87013 50.0632 9.87013 50.2173C9.87013 50.452 9.7683 50.6411 9.56462 50.7847C9.36446 50.9283 9.09932 51.0001 8.76923 51.0001Z" fill="white"/>
<path d="M5.62646 51.0001C5.35255 51.0001 5.11024 50.9406 4.89954 50.8215C4.68884 50.6989 4.52555 50.5308 4.40967 50.3172C4.29378 50.1 4.23584 49.8513 4.23584 49.5712C4.23584 49.2945 4.29378 49.0493 4.40967 48.8357C4.52906 48.6185 4.69411 48.4504 4.90481 48.3313C5.11551 48.2088 5.35781 48.1475 5.63172 48.1475C5.91266 48.1475 6.16023 48.2123 6.37444 48.3418C6.58865 48.4714 6.75194 48.6535 6.86432 48.8882C6.97669 49.1229 7.02937 49.3925 7.02234 49.6972H4.54662C4.57471 50.0054 4.68533 50.2524 4.87847 50.438C5.07513 50.6201 5.32445 50.7112 5.62646 50.7112C5.84769 50.7112 6.04259 50.6621 6.21115 50.5641C6.37971 50.466 6.50964 50.3294 6.60094 50.1543L6.94333 50.1596C6.83798 50.4187 6.66766 50.6236 6.43238 50.7742C6.20061 50.9248 5.93197 51.0001 5.62646 51.0001ZM6.7221 49.4293C6.68698 49.1211 6.57109 48.8794 6.37444 48.7043C6.17779 48.5257 5.93022 48.4364 5.63172 48.4364C5.32972 48.4364 5.08039 48.5275 4.88374 48.7096C4.68709 48.8882 4.57471 49.1281 4.54662 49.4293H6.7221Z" fill="white"/>
<path d="M2.17885 51.0005C1.90143 51.0005 1.65386 50.9409 1.43614 50.8219C1.21841 50.6993 1.0481 50.5294 0.925188 50.3123C0.805792 50.0951 0.746094 49.8482 0.746094 49.5715V49.209C0.746094 48.7958 0.788234 48.4543 0.872513 48.1846C0.956793 47.9114 1.09024 47.696 1.27284 47.5384C1.45545 47.3773 1.69775 47.26 1.99976 47.1864L3.39564 46.8555V47.1812L2.0735 47.4859C1.75745 47.5594 1.5169 47.6995 1.35186 47.9062C1.19032 48.1128 1.09726 48.4 1.07268 48.7677C1.19207 48.5786 1.35185 48.4333 1.55202 48.3317C1.75218 48.2266 1.97693 48.1741 2.22626 48.1741C2.49666 48.1741 2.73721 48.2354 2.9479 48.358C3.16212 48.477 3.32892 48.6434 3.44832 48.8571C3.56771 49.0707 3.62741 49.3141 3.62741 49.5873C3.62741 49.8605 3.56596 50.1056 3.44305 50.3228C3.32014 50.5364 3.14807 50.7028 2.92684 50.8219C2.70911 50.9409 2.45978 51.0005 2.17885 51.0005ZM1.05161 49.5873C1.05161 49.8044 1.09902 49.9988 1.19383 50.1704C1.28865 50.3385 1.42209 50.4699 1.59416 50.5644C1.76623 50.659 1.96288 50.7063 2.18412 50.7063C2.40535 50.7063 2.60201 50.659 2.77408 50.5644C2.94615 50.4699 3.07959 50.3385 3.17441 50.1704C3.27273 49.9988 3.3219 49.8044 3.3219 49.5873C3.3219 49.3666 3.27273 49.1723 3.17441 49.0042C3.07959 48.8325 2.94615 48.6994 2.77408 48.6049C2.60201 48.5103 2.40535 48.463 2.18412 48.463C1.96288 48.463 1.76623 48.5103 1.59416 48.6049C1.42209 48.6994 1.28865 48.8325 1.19383 49.0042C1.09902 49.1723 1.05161 49.3666 1.05161 49.5873Z" fill="white"/>
<path d="M39.584 44.7439H38.757L38.067 45.7053H37.6982L38.4199 44.7124C38.2092 44.6634 38.0424 44.5653 37.9195 44.4182C37.7966 44.2676 37.7351 44.0837 37.7351 43.8666C37.7351 43.6004 37.8247 43.3885 38.0038 43.2309C38.1864 43.0698 38.4234 42.9893 38.7149 42.9893H39.8895V45.7053H39.584V44.7439ZM38.0406 43.8666C38.0406 44.0522 38.1021 44.1976 38.225 44.3026C38.3479 44.4077 38.5129 44.4602 38.7201 44.4602H39.5893V43.2729H38.7201C38.5129 43.2729 38.3479 43.3255 38.225 43.4306C38.1021 43.5321 38.0406 43.6775 38.0406 43.8666Z" fill="white"/>
<path d="M35.491 45.7473C35.175 45.7473 34.9239 45.6755 34.7378 45.5319C34.5552 45.3848 34.4639 45.1869 34.4639 44.9382C34.4639 44.6966 34.5481 44.5057 34.7167 44.3656C34.8853 44.222 35.11 44.1502 35.3909 44.1502H36.5919V43.9558C36.5919 43.7282 36.5147 43.5461 36.3602 43.4095C36.2092 43.2729 36.0072 43.2046 35.7544 43.2046C35.5507 43.2046 35.3734 43.2536 35.2224 43.3517C35.0714 43.4462 34.9678 43.5758 34.9116 43.7404H34.6008C34.6675 43.4883 34.8027 43.2886 35.0064 43.1415C35.2136 42.9944 35.4612 42.9209 35.7491 42.9209C35.9739 42.9209 36.1723 42.9647 36.3444 43.0522C36.5199 43.1363 36.6551 43.2554 36.75 43.4095C36.8483 43.5636 36.8974 43.7404 36.8974 43.9401V45.7053H36.6446L36.613 45.2377C36.4936 45.4023 36.3373 45.5284 36.1442 45.6159C35.9511 45.7035 35.7333 45.7473 35.491 45.7473ZM34.7694 44.933C34.7694 45.0976 34.8343 45.2289 34.9643 45.327C35.0977 45.4251 35.2768 45.4741 35.5016 45.4741C35.7088 45.4741 35.8949 45.4338 36.0599 45.3533C36.2285 45.2727 36.3602 45.1606 36.455 45.017C36.5498 44.8735 36.5972 44.7123 36.5972 44.5337V44.4181H35.4015C35.2154 44.4181 35.0626 44.4654 34.9432 44.56C34.8273 44.6546 34.7694 44.7789 34.7694 44.933Z" fill="white"/>
<path d="M33.2464 44.476H31.4554V45.7053H31.1499V42.9893H31.4554V44.1871H33.2464V42.9893H33.5519V45.7053H33.2464V44.476Z" fill="white"/>
<path d="M28.905 45.7736C28.6592 45.7736 28.4362 45.7228 28.236 45.6212C28.0394 45.5161 27.8796 45.3725 27.7567 45.1904V46.756H27.4512V42.9892H27.7093L27.7409 43.5303C27.8603 43.3377 28.0201 43.1888 28.2202 43.0838C28.4239 42.9752 28.6522 42.9209 28.905 42.9209C29.1754 42.9209 29.4159 42.9822 29.6266 43.1048C29.8409 43.2274 30.0059 43.3972 30.1218 43.6144C30.2412 43.828 30.3009 44.0714 30.3009 44.3446C30.3009 44.6178 30.2412 44.8629 30.1218 45.0801C30.0059 45.2972 29.8409 45.4671 29.6266 45.5897C29.4159 45.7123 29.1754 45.7736 28.905 45.7736ZM27.7462 44.3446C27.7462 44.5652 27.7936 44.7614 27.8884 44.933C27.9832 45.1046 28.1149 45.2394 28.2834 45.3375C28.4555 45.4321 28.6522 45.4794 28.8734 45.4794C29.0946 45.4794 29.2895 45.4321 29.4581 45.3375C29.6266 45.2394 29.7583 45.1046 29.8531 44.933C29.948 44.7614 29.9954 44.5652 29.9954 44.3446C29.9954 44.1275 29.948 43.9331 29.8531 43.7615C29.7583 43.5898 29.6266 43.4568 29.4581 43.3622C29.2895 43.2641 29.0946 43.2151 28.8734 43.2151C28.6522 43.2151 28.4555 43.2641 28.2834 43.3622C28.1149 43.4568 27.9832 43.5898 27.8884 43.7615C27.7936 43.9331 27.7462 44.1275 27.7462 44.3446Z" fill="white"/>
<path d="M25.2202 45.7736C24.9463 45.7736 24.704 45.714 24.4933 45.5949C24.2826 45.4723 24.1193 45.3042 24.0034 45.0906C23.8875 44.8734 23.8296 44.6248 23.8296 44.3446C23.8296 44.0679 23.8875 43.8227 24.0034 43.6091C24.1228 43.392 24.2879 43.2239 24.4986 43.1048C24.7093 42.9822 24.9516 42.9209 25.2255 42.9209C25.5064 42.9209 25.754 42.9857 25.9682 43.1153C26.1824 43.2449 26.3457 43.427 26.4581 43.6616C26.5704 43.8963 26.6231 44.166 26.6161 44.4707H24.1404C24.1685 44.7789 24.2791 45.0258 24.4722 45.2114C24.6689 45.3935 24.9182 45.4846 25.2202 45.4846C25.4414 45.4846 25.6363 45.4356 25.8049 45.3375C25.9735 45.2394 26.1034 45.1029 26.1947 44.9277L26.5371 44.933C26.4317 45.1922 26.2614 45.397 26.0261 45.5476C25.7944 45.6982 25.5257 45.7736 25.2202 45.7736ZM26.3158 44.2028C26.2807 43.8945 26.1648 43.6529 25.9682 43.4778C25.7715 43.2992 25.524 43.2098 25.2255 43.2098C24.9235 43.2098 24.6741 43.3009 24.4775 43.483C24.2808 43.6616 24.1685 43.9016 24.1404 44.2028H26.3158Z" fill="white"/>
<path d="M22.1187 43.2729H21.0547V42.9893H23.4883V43.2729H22.4242V45.7053H22.1187V43.2729Z" fill="white"/>
<path d="M16.8857 42.9892H17.1913V44.187H17.8971C17.9217 43.9418 17.9972 43.7229 18.1236 43.5303C18.25 43.3377 18.4151 43.1888 18.6187 43.0838C18.8259 42.9752 19.0577 42.9209 19.3141 42.9209C19.588 42.9209 19.8338 42.9822 20.0515 43.1048C20.2692 43.2239 20.4378 43.392 20.5572 43.6091C20.6801 43.8263 20.7415 44.0714 20.7415 44.3446C20.7415 44.6178 20.6801 44.8629 20.5572 45.0801C20.4378 45.2972 20.2692 45.4671 20.0515 45.5897C19.8338 45.7123 19.588 45.7736 19.3141 45.7736C19.0542 45.7736 18.8207 45.7193 18.6135 45.6107C18.4063 45.5021 18.2395 45.3498 18.1131 45.1536C17.9866 44.954 17.9147 44.7281 17.8971 44.4759H17.1913V45.7053H16.8857V42.9892ZM18.1921 44.3446C18.1921 44.5652 18.2395 44.7614 18.3343 44.933C18.4291 45.1046 18.5608 45.2394 18.7294 45.3375C18.9014 45.4321 19.0963 45.4794 19.3141 45.4794C19.5318 45.4794 19.7249 45.4321 19.8935 45.3375C20.0655 45.2394 20.199 45.1046 20.2938 44.933C20.3886 44.7614 20.436 44.5652 20.436 44.3446C20.436 44.124 20.3886 43.9278 20.2938 43.7562C20.199 43.5846 20.0655 43.4515 19.8935 43.3569C19.7249 43.2624 19.5318 43.2151 19.3141 43.2151C19.0963 43.2151 18.9014 43.2624 18.7294 43.3569C18.5608 43.4515 18.4291 43.5846 18.3343 43.7562C18.2395 43.9278 18.1921 44.124 18.1921 44.3446Z" fill="white"/>
<path d="M13.9688 42.9893H14.2743V43.8824H15.1329C15.4349 43.8824 15.6754 43.9647 15.8545 44.1293C16.0336 44.2939 16.1232 44.5145 16.1232 44.7912C16.1232 45.0714 16.0336 45.2938 15.8545 45.4584C15.6754 45.623 15.4349 45.7053 15.1329 45.7053H13.9688V42.9893ZM15.1276 45.4164C15.3418 45.4164 15.5104 45.3603 15.6333 45.2483C15.7562 45.1362 15.8176 44.9838 15.8176 44.7912C15.8176 44.5986 15.7562 44.4462 15.6333 44.3342C15.5104 44.2221 15.3418 44.166 15.1276 44.166H14.2743V45.4164H15.1276Z" fill="white"/>
<path d="M10.4814 42.9893H12.8834V45.7053H12.5779V43.2729H10.787V45.7053H10.4814V42.9893Z" fill="white"/>
<path d="M6.48975 42.9893H6.77419L7.94357 44.6021L9.10769 42.9893H9.3974V45.7053H9.09189V43.4988L8.05419 44.9383H7.83822L6.79526 43.4988V45.7053H6.48975V42.9893Z" fill="white"/>
<path d="M4.21303 45.7736C3.93561 45.7736 3.68804 45.714 3.47031 45.5949C3.25259 45.4723 3.08228 45.3025 2.95937 45.0853C2.83997 44.8682 2.78027 44.6213 2.78027 44.3446C2.78027 44.0679 2.83997 43.8227 2.95937 43.6091C3.08228 43.392 3.25259 43.2239 3.47031 43.1048C3.68804 42.9822 3.93561 42.9209 4.21303 42.9209C4.49045 42.9209 4.73627 42.9822 4.95048 43.1048C5.1682 43.2239 5.33676 43.392 5.45616 43.6091C5.57907 43.8227 5.64052 44.0679 5.64052 44.3446C5.64052 44.6213 5.57907 44.8682 5.45616 45.0853C5.33676 45.3025 5.1682 45.4723 4.95048 45.5949C4.73627 45.714 4.49045 45.7736 4.21303 45.7736ZM3.08579 44.3446C3.08579 44.5652 3.1332 44.7614 3.22801 44.933C3.32282 45.1046 3.45451 45.2394 3.62307 45.3375C3.79514 45.4321 3.9918 45.4794 4.21303 45.4794C4.43075 45.4794 4.6239 45.4321 4.79245 45.3375C4.96453 45.2394 5.09797 45.1046 5.19278 44.933C5.2876 44.7614 5.33501 44.5652 5.33501 44.3446C5.33501 44.124 5.2876 43.9278 5.19278 43.7562C5.09797 43.5846 4.96453 43.4515 4.79245 43.3569C4.6239 43.2624 4.43075 43.2151 4.21303 43.2151C3.9918 43.2151 3.79514 43.2624 3.62307 43.3569C3.45451 43.4515 3.32282 43.5846 3.22801 43.7562C3.1332 43.9278 3.08579 44.124 3.08579 44.3446Z" fill="white"/>
<path d="M0.0546875 42.9893H0.360202V44.1818H0.760531C1.01688 44.1818 1.21002 44.1415 1.33995 44.061C1.46989 43.9769 1.57699 43.8211 1.66127 43.5934L1.89304 42.9893H2.21963L1.94572 43.709C1.88602 43.8631 1.81754 43.9909 1.74028 44.0925C1.66654 44.1906 1.57699 44.2676 1.47164 44.3236L2.35131 45.7053H1.98786L1.17666 44.4287C1.06429 44.4532 0.922067 44.4655 0.749996 44.4655H0.360202V45.7053H0.0546875V42.9893Z" fill="white"/>
</svg>
