<svg width="411" height="70" viewBox="0 0 411 70" fill="none" xmlns="http://www.w3.org/2000/svg">
<path d="M410.308 60.7616H406.228V16.9141H410.308V60.7616ZM394.9 16.9141V31.4464H398.716C400.316 31.4464 401.668 32.8453 402.772 35.6432C403.892 38.4411 404.452 41.8654 404.452 45.9161C404.452 50.1755 403.924 53.7251 402.868 56.5647C401.828 59.3626 400.524 60.7616 398.956 60.7616H390.82V16.9141H394.9ZM398.716 50.2382C399.196 50.2382 399.588 49.8414 399.892 49.048C400.212 48.2128 400.372 47.1688 400.372 45.9161C400.372 44.7885 400.212 43.849 399.892 43.0973C399.572 42.3456 399.18 41.9698 398.716 41.9698H394.9V50.2382H398.716Z" fill="white"/>
<path d="M382.434 27.4375H379.338V38.2114H382.434C383.106 38.2114 383.666 37.6894 384.114 36.6454C384.578 35.5597 384.81 34.2443 384.81 32.6992C384.81 31.1958 384.586 29.943 384.138 28.9408C383.69 27.9386 383.122 27.4375 382.434 27.4375ZM382.434 48.7348H379.338V60.7616H375.258V16.9141H382.674C384.45 16.9141 385.93 18.4174 387.114 21.4241C388.298 24.4308 388.89 28.1891 388.89 32.6992C388.89 37.1674 388.266 40.9675 387.018 44.0995C385.77 47.1897 384.242 48.7348 382.434 48.7348Z" fill="white"/>
<path d="M361.027 60.7616L363.451 45.227L357.691 16.9141H362.491L365.779 35.7058L368.563 16.9141H373.339L365.635 60.7616H361.027Z" fill="white"/>
<path d="M356.414 16.9141V27.4375H351.614V60.7616H347.534V27.4375H342.734V16.9141H356.414Z" fill="white"/>
<path d="M330.119 16.9141V31.4464H335.615C337.215 31.4464 338.567 32.8453 339.671 35.6432C340.791 38.4411 341.351 41.8654 341.351 45.9161C341.351 50.1755 340.823 53.7251 339.767 56.5647C338.727 59.3626 337.423 60.7616 335.855 60.7616H326.039V16.9141H330.119ZM335.615 50.2382C336.095 50.2382 336.487 49.8414 336.791 49.048C337.111 48.2128 337.271 47.1688 337.271 45.9161C337.271 44.7885 337.111 43.849 336.791 43.0973C336.471 42.3456 336.079 41.9698 335.615 41.9698H330.119V50.2382H335.615Z" fill="white"/>
<path d="M308.325 50.8646C309.381 50.8646 310.197 50.0085 310.773 48.2963C311.349 46.5424 311.637 44.3292 311.637 41.6566V16.9141H323.637V60.7616H319.557V26.8111H315.717V43.7863C315.717 48.3799 315.069 52.3679 313.773 55.7504C312.493 59.0912 310.837 60.7616 308.805 60.7616H307.629V50.8646H308.325Z" fill="white"/>
<path d="M293.879 60.7616L296.303 45.227L290.543 16.9141H295.343L298.631 35.7058L301.415 16.9141H306.191L298.487 60.7616H293.879Z" fill="white"/>
<path d="M274.266 60.7616V16.9141H278.346V33.5135H278.994L284.01 16.9141H289.218L282.474 38.8378L289.218 60.7616H284.01L278.994 44.3501H278.346V60.7616H274.266Z" fill="white"/>
<path d="M263.488 50.2382H265.888V69.2805H261.808V60.7616H249.328V16.9141H253.408V50.2382H259.408V16.9141H263.488V50.2382Z" fill="white"/>
<path d="M239.135 33.5135H246.719V44.0369H239.135V50.2382H247.295V60.7616H235.055V16.9141H247.295V27.4375H239.135V33.5135Z" fill="white"/>
<path d="M226.668 27.4375H223.572V38.2114H226.668C227.34 38.2114 227.9 37.6894 228.348 36.6454C228.812 35.5597 229.044 34.2443 229.044 32.6992C229.044 31.1958 228.82 29.943 228.372 28.9408C227.924 27.9386 227.356 27.4375 226.668 27.4375ZM226.668 48.7348H223.572V60.7616H219.492V16.9141H226.908C228.684 16.9141 230.164 18.4174 231.348 21.4241C232.532 24.4308 233.124 28.1891 233.124 32.6992C233.124 37.1674 232.5 40.9675 231.252 44.0995C230.004 47.1897 228.476 48.7348 226.668 48.7348Z" fill="white"/>
<path d="M204.178 38.6488C204.178 42.3236 204.626 45.3512 205.522 47.7315C206.418 50.07 207.522 51.2393 208.834 51.2393C210.146 51.2393 211.25 50.07 212.146 47.7315C213.042 45.3512 213.49 42.3236 213.49 38.6488C213.49 35.0575 213.034 32.1134 212.122 29.8166C211.226 27.4781 210.13 26.3088 208.834 26.3088C207.538 26.3088 206.434 27.4781 205.522 29.8166C204.626 32.1134 204.178 35.0575 204.178 38.6488ZM200.098 38.6488C200.098 31.9673 200.938 26.4759 202.618 22.1746C204.314 17.8317 206.386 15.6602 208.834 15.6602C211.282 15.6602 213.346 17.8317 215.026 22.1746C216.722 26.4759 217.57 31.9673 217.57 38.6488C217.57 45.3721 216.722 50.9261 215.026 55.3108C213.346 59.6956 211.282 61.8879 208.834 61.8879C206.386 61.8879 204.314 59.6956 202.618 55.3108C200.938 50.9261 200.098 45.3721 200.098 38.6488Z" fill="white"/>
<path d="M193.109 27.4375H188.861V33.7014H193.109C193.445 33.7014 193.733 33.3882 193.973 32.7618C194.213 32.0936 194.333 31.3002 194.333 30.3815C194.333 29.5046 194.221 28.7946 193.997 28.2518C193.773 27.7089 193.477 27.4375 193.109 27.4375ZM193.109 43.849H188.861V50.2382H193.349C193.701 50.2382 193.989 49.9458 194.213 49.3612C194.453 48.7766 194.573 48.0458 194.573 47.1688C194.573 46.2084 194.429 45.4149 194.141 44.7885C193.869 44.1622 193.525 43.849 193.109 43.849ZM193.637 60.7616H184.781V16.9141H193.397C194.853 16.9141 196.053 18.0207 196.997 20.2339C197.941 22.4472 198.413 25.266 198.413 28.6903C198.413 30.7365 198.229 32.6574 197.861 34.4531C197.509 36.2487 197.029 37.6268 196.421 38.5873C197.109 39.5895 197.653 41.0093 198.053 42.8467C198.453 44.6424 198.653 46.626 198.653 48.7975C198.653 52.2217 198.173 55.0823 197.213 57.379C196.269 59.6341 195.077 60.7616 193.637 60.7616Z" fill="white"/>
<path d="M164.494 50.8646H182.974V68.0277H178.894V60.7616H168.574V68.0277H164.494V50.8646ZM165.31 50.8646C166.446 50.8646 167.318 49.8832 167.926 47.9205C168.55 45.9578 168.862 43.4522 168.862 40.4038V16.9141H180.622V60.6989H176.542V27.4375H172.942V41.2807C172.942 45.8743 172.254 49.8414 170.878 53.1822C169.502 56.523 167.726 58.1933 165.55 58.1933H164.854L164.494 50.8646H165.31Z" fill="white"/>
<path d="M149.116 12.0267C147.724 12.0267 146.532 10.8575 145.54 8.51894C144.564 6.18041 144.076 3.34076 144.076 0H147.124C147.124 1.37806 147.316 2.52645 147.7 3.44516C148.084 4.36387 148.564 4.82322 149.14 4.82322C149.732 4.82322 150.236 4.36387 150.652 3.44516C151.084 2.48469 151.3 1.3363 151.3 0H154.348C154.348 3.21548 153.828 6.03425 152.788 8.4563C151.748 10.8366 150.524 12.0267 149.116 12.0267ZM156.22 60.7601H152.14V34.0131L146.452 60.7601H141.82V16.9126H145.9V43.6596L151.588 16.9126H156.22V60.7601Z" fill="white"/>
<path d="M126.506 38.6488C126.506 42.3236 126.954 45.3512 127.85 47.7315C128.746 50.07 129.85 51.2393 131.162 51.2393C132.474 51.2393 133.578 50.07 134.474 47.7315C135.37 45.3512 135.818 42.3236 135.818 38.6488C135.818 35.0575 135.362 32.1134 134.45 29.8166C133.554 27.4781 132.458 26.3088 131.162 26.3088C129.866 26.3088 128.762 27.4781 127.85 29.8166C126.954 32.1134 126.506 35.0575 126.506 38.6488ZM122.426 38.6488C122.426 31.9673 123.266 26.4759 124.946 22.1746C126.642 17.8317 128.714 15.6602 131.162 15.6602C133.61 15.6602 135.674 17.8317 137.354 22.1746C139.05 26.4759 139.898 31.9673 139.898 38.6488C139.898 45.3721 139.05 50.9261 137.354 55.3108C135.674 59.6956 133.61 61.8879 131.162 61.8879C128.714 61.8879 126.642 59.6956 124.946 55.3108C123.266 50.9261 122.426 45.3721 122.426 38.6488Z" fill="white"/>
<path d="M106.148 60.7616V16.9141H110.228V33.5135H110.876L115.892 16.9141H121.1L114.356 38.8378L121.1 60.7616H115.892L110.876 44.3501H110.228V60.7616H106.148Z" fill="white"/>
<path d="M88.1403 50.5502C87.3723 47.0007 86.9883 43.0753 86.9883 38.7741C86.9883 34.4728 87.3723 30.5683 88.1403 27.0605C88.9083 23.5109 89.9643 20.7339 91.3083 18.7295C92.6523 16.6833 94.1403 15.6602 95.7723 15.6602C97.5963 15.6602 99.2443 16.9756 100.716 19.6064C102.204 22.1955 103.332 25.7451 104.1 30.2551L99.9723 34.0135C99.5883 31.5914 99.0203 29.7122 98.2683 28.3759C97.5163 26.9979 96.6763 26.3088 95.7483 26.3088C94.4203 26.3088 93.3083 27.5199 92.4123 29.9419C91.5163 32.3222 91.0683 35.2663 91.0683 38.7741C91.0683 42.2819 91.5163 45.2468 92.4123 47.6688C93.3083 50.0491 94.4123 51.2393 95.7243 51.2393C96.7003 51.2393 97.5723 50.5085 98.3403 49.0469C99.1083 47.5853 99.6843 45.56 100.068 42.9709L104.22 46.6666C103.484 51.3437 102.356 55.0603 100.836 57.8164C99.3323 60.5308 97.6443 61.8879 95.7723 61.8879C94.1403 61.8879 92.6523 60.8857 91.3083 58.8813C89.9643 56.835 88.9083 54.058 88.1403 50.5502Z" fill="white"/>
<path d="M67.1812 50.8646H85.6612V68.0277H81.5812V60.7616H71.2612V68.0277H67.1812V50.8646ZM67.9972 50.8646C69.1332 50.8646 70.0052 49.8832 70.6132 47.9205C71.2372 45.9578 71.5492 43.4522 71.5492 40.4038V16.9141H83.3092V60.6989H79.2292V27.4375H75.6292V41.2807C75.6292 45.8743 74.9412 49.8414 73.5652 53.1822C72.1892 56.523 70.4132 58.1933 68.2372 58.1933H67.5412L67.1812 50.8646H67.9972Z" fill="white"/>
<path d="M52.4667 38.6488C52.4667 42.3236 52.9147 45.3512 53.8107 47.7315C54.7067 50.07 55.8107 51.2393 57.1227 51.2393C58.4347 51.2393 59.5387 50.07 60.4347 47.7315C61.3307 45.3512 61.7787 42.3236 61.7787 38.6488C61.7787 35.0575 61.3227 32.1134 60.4107 29.8166C59.5147 27.4781 58.4187 26.3088 57.1227 26.3088C55.8267 26.3088 54.7227 27.4781 53.8107 29.8166C52.9147 32.1134 52.4667 35.0575 52.4667 38.6488ZM48.3867 38.6488C48.3867 31.9673 49.2267 26.4759 50.9067 22.1746C52.6027 17.8317 54.6747 15.6602 57.1227 15.6602C59.5707 15.6602 61.6347 17.8317 63.3147 22.1746C65.0107 26.4759 65.8587 31.9673 65.8587 38.6488C65.8587 45.3721 65.0107 50.9261 63.3147 55.3108C61.6347 59.6956 59.5707 61.8879 57.1227 61.8879C54.6747 61.8879 52.6027 59.6956 50.9067 55.3108C49.2267 50.9261 48.3867 45.3721 48.3867 38.6488Z" fill="white"/>
<path d="M40.4807 27.4375H37.3847V38.2114H40.4807C41.1527 38.2114 41.7127 37.6894 42.1607 36.6454C42.6247 35.5597 42.8567 34.2443 42.8567 32.6992C42.8567 31.1958 42.6327 29.943 42.1847 28.9408C41.7367 27.9386 41.1687 27.4375 40.4807 27.4375ZM40.4807 48.7348H37.3847V60.7616H33.3047V16.9141H40.7207C42.4967 16.9141 43.9767 18.4174 45.1607 21.4241C46.3447 24.4308 46.9367 28.1891 46.9367 32.6992C46.9367 37.1674 46.3127 40.9675 45.0647 44.0995C43.8167 47.1897 42.2887 48.7348 40.4807 48.7348Z" fill="white"/>
<path d="M17.9902 38.6488C17.9902 42.3236 18.4382 45.3512 19.3342 47.7315C20.2302 50.07 21.3342 51.2393 22.6462 51.2393C23.9582 51.2393 25.0622 50.07 25.9582 47.7315C26.8542 45.3512 27.3022 42.3236 27.3022 38.6488C27.3022 35.0575 26.8462 32.1134 25.9342 29.8166C25.0382 27.4781 23.9422 26.3088 22.6462 26.3088C21.3502 26.3088 20.2462 27.4781 19.3342 29.8166C18.4382 32.1134 17.9902 35.0575 17.9902 38.6488ZM13.9102 38.6488C13.9102 31.9673 14.7502 26.4759 16.4302 22.1746C18.1262 17.8317 20.1982 15.6602 22.6462 15.6602C25.0942 15.6602 27.1582 17.8317 28.8382 22.1746C30.5342 26.4759 31.3822 31.9673 31.3822 38.6488C31.3822 45.3721 30.5342 50.9261 28.8382 55.3108C27.1582 59.6956 25.0942 61.8879 22.6462 61.8879C20.1982 61.8879 18.1262 59.6956 16.4302 55.3108C14.7502 50.9261 13.9102 45.3721 13.9102 38.6488Z" fill="white"/>
<path d="M0 60.7616V16.9141H12.48V26.8111H4.08V60.7616H0Z" fill="white"/>
</svg>
