<svg width="204" height="46" viewBox="0 0 204 46" fill="none" xmlns="http://www.w3.org/2000/svg">
<path d="M193.993 21.8449C193.993 24.5961 194.281 26.852 194.855 28.6127C195.43 30.3734 196.132 31.2538 196.962 31.2538C197.792 31.2538 198.494 30.3734 199.069 28.6127C199.643 26.852 199.93 24.5961 199.93 21.8449V18.9287C199.93 16.1776 199.643 13.9217 199.069 12.161C198.494 10.4002 197.792 9.51986 196.962 9.51986C196.132 9.51986 195.43 10.4002 194.855 12.161C194.281 13.9217 193.993 16.1776 193.993 18.9287V21.8449ZM189.924 21.8449V18.9287C189.924 13.4998 190.602 9.02466 191.959 5.50321C193.331 1.94508 194.999 0.166016 196.962 0.166016C198.925 0.166016 200.585 1.94508 201.941 5.50321C203.314 9.02466 204 13.4998 204 18.9287V21.8449C204 27.2738 203.314 31.7673 201.941 35.3255C200.585 38.8469 198.925 40.6077 196.962 40.6077C194.999 40.6077 193.331 38.8469 191.959 35.3255C190.602 31.7673 189.924 27.2738 189.924 21.8449Z" fill="white"/>
<path d="M178.471 21.8449C178.471 24.5961 178.758 26.852 179.332 28.6127C179.907 30.3734 180.609 31.2538 181.439 31.2538C182.269 31.2538 182.971 30.3734 183.546 28.6127C184.12 26.852 184.407 24.5961 184.407 21.8449V18.9287C184.407 16.1776 184.12 13.9217 183.546 12.161C182.971 10.4002 182.269 9.51986 181.439 9.51986C180.609 9.51986 179.907 10.4002 179.332 12.161C178.758 13.9217 178.471 16.1776 178.471 18.9287V21.8449ZM174.401 21.8449V18.9287C174.401 13.4998 175.079 9.02466 176.436 5.50321C177.808 1.94508 179.476 0.166016 181.439 0.166016C183.402 0.166016 185.062 1.94508 186.418 5.50321C187.791 9.02466 188.477 13.4998 188.477 18.9287V21.8449C188.477 27.2738 187.791 31.7673 186.418 35.3255C185.062 38.8469 183.402 40.6077 181.439 40.6077C179.476 40.6077 177.808 38.8469 176.436 35.3255C175.079 31.7673 174.401 27.2738 174.401 21.8449Z" fill="white"/>
<path d="M167.738 16.6723C167.738 14.9116 167.977 13.4443 168.456 12.2705C168.935 11.0967 169.533 10.5098 170.251 10.5098C171.017 10.5098 171.656 11.0967 172.167 12.2705C172.693 13.4443 172.957 14.9116 172.957 16.6723C172.957 18.3963 172.709 19.8269 172.214 20.9641C171.72 22.1012 171.097 22.6698 170.347 22.6698C169.597 22.6698 168.975 22.1012 168.48 20.9641C167.985 19.8269 167.738 18.3963 167.738 16.6723ZM167.738 34.7197C167.738 32.959 167.977 31.4917 168.456 30.3179C168.935 29.1441 169.533 28.5572 170.251 28.5572C171.017 28.5572 171.656 29.1441 172.167 30.3179C172.693 31.4917 172.957 32.959 172.957 34.7197C172.957 36.4438 172.709 37.8744 172.214 39.0115C171.72 40.1486 171.097 40.7172 170.347 40.7172C169.597 40.7172 168.975 40.1486 168.48 39.0115C167.985 37.8744 167.738 36.4438 167.738 34.7197Z" fill="white"/>
<path d="M157.5 27.8958C157.5 28.8495 157.724 29.6565 158.171 30.3168C158.617 30.9404 159.184 31.2522 159.87 31.2522C160.557 31.2522 161.123 30.9404 161.57 30.3168C162.017 29.6565 162.24 28.8495 162.24 27.8958C162.24 26.8687 162.009 26.025 161.546 25.3648C161.099 24.6678 160.541 24.3193 159.87 24.3193C159.2 24.3193 158.633 24.6678 158.171 25.3648C157.724 26.025 157.5 26.8687 157.5 27.8958ZM153.909 10.9488C153.909 7.83088 154.476 5.24482 155.609 3.19064C156.742 1.13647 158.163 0.109375 159.87 0.109375C161.578 0.109375 162.998 1.13647 164.131 3.19064C165.265 5.24482 165.831 7.83088 165.831 10.9488C165.831 12.7829 165.616 14.4886 165.185 16.0659C164.754 17.6433 164.163 18.8721 163.413 19.7525C164.307 20.6695 165.009 21.99 165.52 23.7141C166.047 25.4381 166.31 27.3272 166.31 29.3814C166.31 32.6094 165.696 35.2872 164.467 37.4147C163.254 39.5423 161.722 40.606 159.87 40.606C158.019 40.606 156.479 39.5423 155.25 37.4147C154.037 35.2872 153.431 32.6094 153.431 29.3814C153.431 27.3272 153.686 25.4381 154.197 23.7141C154.723 21.99 155.434 20.6695 156.327 19.7525C155.577 18.8721 154.987 17.6433 154.556 16.0659C154.125 14.4886 153.909 12.7829 153.909 10.9488ZM158.506 14.4703C158.873 15.0205 159.328 15.2956 159.87 15.2956C160.413 15.2956 160.86 15.0205 161.211 14.4703C161.578 13.9201 161.762 13.2414 161.762 12.4344C161.762 11.5908 161.578 10.8938 161.211 10.3436C160.86 9.75668 160.413 9.46322 159.87 9.46322C159.328 9.46322 158.873 9.75668 158.506 10.3436C158.155 10.8938 157.979 11.5908 157.979 12.4344C157.979 13.2414 158.155 13.9201 158.506 14.4703Z" fill="white"/>
<path d="M151.512 1.10156V39.6174H147.443V11.6109L143.684 17.4983L141.458 9.90518L147.179 1.10156H151.512Z" fill="white"/>
<path d="M120.329 20.1933C120.329 23.4213 120.776 26.0807 121.67 28.1716C122.563 30.2258 123.664 31.2529 124.973 31.2529C126.282 31.2529 127.383 30.2258 128.277 28.1716C129.17 26.0807 129.617 23.4213 129.617 20.1933C129.617 17.0387 129.162 14.4526 128.253 12.4351C127.359 10.3809 126.266 9.35385 124.973 9.35385C123.68 9.35385 122.579 10.3809 121.67 12.4351C120.776 14.4526 120.329 17.0387 120.329 20.1933ZM116.259 20.1933C116.259 14.3242 117.097 9.50058 118.773 5.72235C120.465 1.90745 122.531 0 124.973 0C127.415 0 129.474 1.90745 131.149 5.72235C132.841 9.50058 133.687 14.3242 133.687 20.1933C133.687 26.0991 132.841 30.9777 131.149 34.8293C129.474 38.6809 127.415 40.6067 124.973 40.6067C122.531 40.6067 120.465 38.6809 118.773 34.8293C117.097 30.9777 116.259 26.0991 116.259 20.1933Z" fill="white"/>
<path d="M96.502 30.9238H114.935V46H110.865V39.6174H100.572V46H96.502V30.9238ZM97.3159 30.9238C98.449 30.9238 99.3188 30.0618 99.9253 28.3378C100.548 26.6137 100.859 24.4128 100.859 21.7351V1.10156H112.589V39.5624H108.519V10.3454H104.929V22.5054C104.929 26.5404 104.242 30.0251 102.87 32.9597C101.497 35.8942 99.7258 37.3615 97.5553 37.3615H96.861L96.502 30.9238H97.3159Z" fill="white"/>
<path d="M78.7161 21.8449C78.7161 24.5961 79.0034 26.852 79.578 28.6127C80.1525 30.3734 80.8547 31.2538 81.6846 31.2538C82.5145 31.2538 83.2167 30.3734 83.7913 28.6127C84.3658 26.852 84.6531 24.5961 84.6531 21.8449V18.9287C84.6531 16.1776 84.3658 13.9217 83.7913 12.161C83.2167 10.4002 82.5145 9.51986 81.6846 9.51986C80.8547 9.51986 80.1525 10.4002 79.578 12.161C79.0034 13.9217 78.7161 16.1776 78.7161 18.9287V21.8449ZM74.6465 21.8449V18.9287C74.6465 13.4998 75.3248 9.02466 76.6813 5.50321C78.0538 1.94508 79.7216 0.166016 81.6846 0.166016C83.6476 0.166016 85.3074 1.94508 86.664 5.50321C88.0365 9.02466 88.7227 13.4998 88.7227 18.9287V21.8449C88.7227 27.2738 88.0365 31.7673 86.664 35.3255C85.3074 38.8469 83.6476 40.6077 81.6846 40.6077C79.7216 40.6077 78.0538 38.8469 76.6813 35.3255C75.3248 31.7673 74.6465 27.2738 74.6465 21.8449Z" fill="white"/>
<path d="M63.1927 21.8449C63.1927 24.5961 63.48 26.852 64.0545 28.6127C64.6291 30.3734 65.3313 31.2538 66.1612 31.2538C66.9911 31.2538 67.6933 30.3734 68.2678 28.6127C68.8424 26.852 69.1296 24.5961 69.1296 21.8449V18.9287C69.1296 16.1776 68.8424 13.9217 68.2678 12.161C67.6933 10.4002 66.9911 9.51986 66.1612 9.51986C65.3313 9.51986 64.6291 10.4002 64.0545 12.161C63.48 13.9217 63.1927 16.1776 63.1927 18.9287V21.8449ZM59.123 21.8449V18.9287C59.123 13.4998 59.8013 9.02466 61.1579 5.50321C62.5304 1.94508 64.1982 0.166016 66.1612 0.166016C68.1242 0.166016 69.784 1.94508 71.1405 5.50321C72.513 9.02466 73.1993 13.4998 73.1993 18.9287V21.8449C73.1993 27.2738 72.513 31.7673 71.1405 35.3255C69.784 38.8469 68.1242 40.6077 66.1612 40.6077C64.1982 40.6077 62.5304 38.8469 61.1579 35.3255C59.8013 31.7673 59.123 27.2738 59.123 21.8449Z" fill="white"/>
<path d="M52.4604 16.6723C52.4604 14.9116 52.6998 13.4443 53.1786 12.2705C53.6574 11.0967 54.2559 10.5098 54.9741 10.5098C55.7401 10.5098 56.3785 11.0967 56.8892 12.2705C57.4159 13.4443 57.6792 14.9116 57.6792 16.6723C57.6792 18.3963 57.4318 19.8269 56.9371 20.9641C56.4423 22.1012 55.8199 22.6698 55.0698 22.6698C54.3197 22.6698 53.6973 22.1012 53.2026 20.9641C52.7078 19.8269 52.4604 18.3963 52.4604 16.6723ZM52.4604 34.7197C52.4604 32.959 52.6998 31.4917 53.1786 30.3179C53.6574 29.1441 54.2559 28.5572 54.9741 28.5572C55.7401 28.5572 56.3785 29.1441 56.8892 30.3179C57.4159 31.4917 57.6792 32.959 57.6792 34.7197C57.6792 36.4438 57.4318 37.8744 56.9371 39.0115C56.4423 40.1486 55.8199 40.7172 55.0698 40.7172C54.3197 40.7172 53.6973 40.1486 53.2026 39.0115C52.7078 37.8744 52.4604 36.4438 52.4604 34.7197Z" fill="white"/>
<path d="M41.0072 21.8449C41.0072 24.5961 41.2944 26.852 41.869 28.6127C42.4435 30.3734 43.1457 31.2538 43.9756 31.2538C44.8055 31.2538 45.5077 30.3734 46.0823 28.6127C46.6568 26.852 46.9441 24.5961 46.9441 21.8449V18.9287C46.9441 16.1776 46.6568 13.9217 46.0823 12.161C45.5077 10.4002 44.8055 9.51986 43.9756 9.51986C43.1457 9.51986 42.4435 10.4002 41.869 12.161C41.2944 13.9217 41.0072 16.1776 41.0072 18.9287V21.8449ZM36.9375 21.8449V18.9287C36.9375 13.4998 37.6158 9.02466 38.9723 5.50321C40.3448 1.94508 42.0126 0.166016 43.9756 0.166016C45.9386 0.166016 47.5984 1.94508 48.955 5.50321C50.3275 9.02466 51.0137 13.4998 51.0137 18.9287V21.8449C51.0137 27.2738 50.3275 31.7673 48.955 35.3255C47.5984 38.8469 45.9386 40.6077 43.9756 40.6077C42.0126 40.6077 40.3448 38.8469 38.9723 35.3255C37.6158 31.7673 36.9375 27.2738 36.9375 21.8449Z" fill="white"/>
<path d="M35.0193 1.10156V39.6174H30.9496V11.6109L27.1912 17.4983L24.9648 9.90518L30.6863 1.10156H35.0193Z" fill="white"/>
<path d="M1.14908 30.6476C0.383027 27.5297 0 24.0816 0 20.3034C0 16.5251 0.383027 13.0954 1.14908 10.0141C1.91513 6.89617 2.96846 4.45683 4.30905 2.69611C5.64965 0.898703 7.13388 0 8.76174 0C10.5811 0 12.2249 1.15548 13.6932 3.46643C15.1774 5.7407 16.3026 8.85865 17.0686 12.8203L12.9511 16.1216C12.5681 13.9941 12.0015 12.3434 11.2514 11.1696C10.5013 9.9591 9.66345 9.35385 8.7378 9.35385C7.41317 9.35385 6.30398 10.4176 5.41026 12.5452C4.51653 14.636 4.06966 17.2221 4.06966 20.3034C4.06966 23.3846 4.51653 25.989 5.41026 28.1166C6.30398 30.2074 7.40519 31.2529 8.71386 31.2529C9.68739 31.2529 10.5572 30.6109 11.3232 29.3271C12.0893 28.0432 12.6638 26.2641 13.0469 23.9899L17.1883 27.2362C16.4542 31.3446 15.3291 34.6092 13.8129 37.0302C12.3127 39.4145 10.629 40.6067 8.76174 40.6067C7.13388 40.6067 5.64965 39.7263 4.30905 37.9656C2.96846 36.1682 1.91513 33.7289 1.14908 30.6476Z" fill="white"/>
</svg>
