<svg width="354" height="72" viewBox="0 0 354 72" fill="none" xmlns="http://www.w3.org/2000/svg">
<path d="M27.6481 72V-5.72205e-06H43.9681V72H27.6481ZM16.3201 35.04C16.3201 38.816 18.0801 41.856 21.6001 44.16C25.1841 46.464 29.9521 47.616 35.9041 47.616C41.8561 47.616 46.5921 46.464 50.1121 44.16C53.6961 41.856 55.4881 38.816 55.4881 35.04C55.4881 31.392 53.6961 28.448 50.1121 26.208C46.5921 23.968 41.8561 22.848 35.9041 22.848C29.9521 22.848 25.1841 23.968 21.6001 26.208C18.0801 28.448 16.3201 31.392 16.3201 35.04ZM0.000117302 35.04C0.000117302 26.848 3.26412 20.224 9.79212 15.168C16.3841 10.048 25.0881 7.488 35.9041 7.488C46.7201 7.488 55.3921 10.048 61.9201 15.168C68.5121 20.224 71.8081 26.848 71.8081 35.04C71.8081 43.296 68.5121 50.016 61.9201 55.2C55.3921 60.384 46.7201 62.976 35.9041 62.976C25.0881 62.976 16.3841 60.384 9.79212 55.2C3.26412 50.016 0.000117302 43.296 0.000117302 35.04ZM137.051 72H120.731V31.008L97.9794 72H79.4514V4.8H95.7714V45.792L118.523 4.8H137.051V72ZM146.67 72V4.8H162.99V30.24H187.95V4.8H204.27V72H187.95V46.368H162.99V72H146.67ZM229.921 43.488H265.921V58.656H229.921V43.488ZM230.497 72H211.681L236.833 4.8H258.337L283.681 72H264.865L247.873 21.504L230.497 72ZM291.909 56.832C296.133 56.832 299.397 55.52 301.701 52.896C304.005 50.208 305.157 46.816 305.157 42.72V4.8H353.157V72H336.837V19.968H321.477V45.984C321.477 53.024 318.885 59.136 313.701 64.32C308.581 69.44 301.957 72 293.829 72H289.125V56.832H291.909Z" fill="white"/>
</svg>
