<svg width="1015" height="101" viewBox="0 0 1015 101" fill="none" xmlns="http://www.w3.org/2000/svg">
<path d="M989.66 75.7579C989.66 79.5299 990.428 82.7 991.964 85.2681C993.5 87.756 995.432 89 997.76 89C1000.09 89 1002.02 87.756 1003.56 85.2681C1005.09 82.7802 1005.86 79.6503 1005.86 75.8783C1005.86 72.026 1005.07 68.8158 1003.48 66.2476C1001.9 63.6794 999.94 62.3954 997.612 62.3954C995.333 62.3954 993.425 63.6794 991.89 66.2476C990.403 68.7355 989.66 71.9056 989.66 75.7579ZM1015 28.8085C1015 40.606 1010.96 48.9124 1002.89 53.7278L995.456 58.1819L991.592 40.8468L997.983 37.2353C1000.91 35.3092 1002.37 32.5002 1002.37 28.8085C1002.37 26.6416 1001.92 24.876 1001.03 23.5116C1000.19 22.1473 999.048 21.4651 997.612 21.4651C994.738 21.4651 992.781 24.5951 991.741 30.855L980 23.9932C981.387 16.6899 983.616 11.0319 986.688 7.01915C989.759 3.00638 993.376 1 997.537 1C1002.59 1 1006.75 3.6083 1010.02 8.8249C1013.34 14.0415 1015 20.7027 1015 28.8085Z" fill="#4000FF"/>
<path d="M957.415 22.4H943.941V34.5429H957.415C958.481 34.5429 959.394 33.9357 960.156 32.7214C960.917 31.4262 961.298 29.8881 961.298 28.1071C961.298 26.4071 960.942 25.031 960.232 23.9786C959.521 22.9262 958.582 22.4 957.415 22.4ZM957.415 54.2143H943.941V66.6H958.176C959.293 66.6 960.206 66.0333 960.917 64.9C961.678 63.7667 962.059 62.35 962.059 60.65C962.059 58.7881 961.602 57.25 960.689 56.0357C959.826 54.8214 958.735 54.2143 957.415 54.2143ZM959.09 87H931V2H958.329C962.947 2 966.753 4.14524 969.747 8.43572C972.742 12.7262 974.239 18.1905 974.239 24.8286C974.239 28.7952 973.655 32.519 972.488 36C971.371 39.481 969.849 42.1524 967.92 44.0143C970.103 45.9571 971.828 48.7095 973.097 52.2714C974.366 55.7524 975 59.5976 975 63.8071C975 70.4452 973.477 75.9905 970.432 80.4429C967.438 84.8143 963.657 87 959.09 87Z" fill="#4000FF"/>
<path d="M881.843 44.2588C881.843 51.3338 883.254 57.1626 886.074 61.7453C888.895 66.2475 892.37 68.4986 896.5 68.4986C900.63 68.4986 904.105 66.2475 906.926 61.7453C909.746 57.1626 911.157 51.3338 911.157 44.2588C911.157 37.3446 909.721 31.6766 906.85 27.2547C904.03 22.7525 900.58 20.5014 896.5 20.5014C892.42 20.5014 888.945 22.7525 886.074 27.2547C883.254 31.6766 881.843 37.3446 881.843 44.2588ZM869 44.2588C869 31.3952 871.644 20.8229 876.933 12.542C882.272 4.18067 888.794 0 896.5 0C904.206 0 910.703 4.18067 915.992 12.542C921.331 20.8229 924 31.3952 924 44.2588C924 57.2028 921.331 67.8957 915.992 76.3374C910.703 84.7791 904.206 89 896.5 89C888.794 89 882.272 84.7791 876.933 76.3374C871.644 67.8957 869 57.2028 869 44.2588Z" fill="#4000FF"/>
<path d="M817 87V2H829.825V34.1786H831.862L847.629 2H864L842.801 44.5L864 87H847.629L831.862 55.1857H829.825V87H817Z" fill="#4000FF"/>
<path d="M809 87H796.25V35.15L778.475 87H764V2H776.75V53.85L794.525 2H809V87Z" fill="#4000FF"/>
<path d="M710 87V2H722.75V34.1786H742.25V2H755V87H742.25V54.5786H722.75V87H710Z" fill="#4000FF"/>
<path d="M706 2V22.4H690.21V87H676.789V22.4H661V2H706Z" fill="#4000FF"/>
<path d="M605.677 67.1721C603.226 60.3383 602 52.7809 602 44.5C602 36.2191 603.226 28.7019 605.677 21.9485C608.128 15.1147 611.499 9.76829 615.788 5.90922C620.078 1.96974 624.827 0 630.036 0C635.858 0 641.118 2.53252 645.816 7.59756C650.565 12.5822 654.166 19.416 656.617 28.0989L643.441 35.3347C642.216 30.6716 640.403 27.0537 638.003 24.481C635.603 21.8279 632.922 20.5014 629.96 20.5014C625.721 20.5014 622.172 22.8329 619.312 27.4959C616.452 32.0786 615.022 37.7466 615.022 44.5C615.022 51.2534 616.452 56.9616 619.312 61.6247C622.172 66.2073 625.695 68.4986 629.883 68.4986C632.998 68.4986 635.781 67.0917 638.233 64.2778C640.684 61.4639 642.522 57.5646 643.748 52.5799L657 59.6951C654.651 68.6996 651.051 75.855 646.199 81.1612C641.399 86.3871 636.011 89 630.036 89C624.827 89 620.078 87.0705 615.788 83.2114C611.499 79.2719 608.128 73.9255 605.677 67.1721Z" fill="#4000FF"/>
<path d="M554.44 50.9357H582.94V70.1214H554.44V50.9357ZM554.896 87H540L559.912 2H576.936L597 87H582.104L568.652 23.1286L554.896 87Z" fill="#4000FF"/>
<path d="M535 2V87H521.831V2H535ZM504.169 2V27.8643C504.169 32.3167 504.969 35.8381 506.57 38.4286C508.223 40.9381 510.34 42.1929 512.923 42.1929C515.35 42.1929 517.441 41.0191 519.197 38.6714C520.953 36.3238 521.831 33.531 521.831 30.2929H526.324C526.324 39.2786 524.62 46.7667 521.211 52.7571C517.803 58.6667 513.542 61.6214 508.43 61.6214C503.369 61.6214 499.185 59.0714 495.88 53.9714C492.627 48.8714 491 41.7881 491 32.7214V2H504.169Z" fill="#4000FF"/>
<path d="M445.66 87L453.405 56.8857L435 2H450.337L460.844 38.4286L469.739 2H485L460.383 87H445.66Z" fill="#4000FF"/>
<path d="M411 2V22.4H395.561V87H382.439V22.4H367V2H411Z" fill="#4000FF"/>
<path d="M337 34.1786H361.165V54.5786H337V66.6H363V87H324V2H363V22.4H337V34.1786Z" fill="#4000FF"/>
<path d="M259 67.7574H317V101H304.195V86.9265H271.805V101H259V67.7574ZM261.561 67.7574C265.126 67.7574 267.863 65.8566 269.771 62.0551C271.73 58.2537 272.709 53.4007 272.709 47.4963V2H309.618V86.8051H296.813V22.3824H285.514V49.1949C285.514 58.0919 283.355 65.7757 279.036 72.2463C274.718 78.7169 269.144 81.9522 262.314 81.9522H260.13L259 67.7574H261.561Z" fill="#4000FF"/>
<path d="M209.058 2H221.942V33.9357H226.262L239.904 2H254L235.811 44.2571L254 87H239.904L226.262 54.9429H221.942V87H209.058V54.9429H204.738L190.718 87H177L195.189 44.6214L177 2H190.718L204.738 33.9357H209.058V2Z" fill="#4000FF"/>
<path d="M109.843 44.2588C109.843 51.3338 111.254 57.1626 114.074 61.7453C116.895 66.2475 120.37 68.4986 124.5 68.4986C128.63 68.4986 132.105 66.2475 134.926 61.7453C137.746 57.1626 139.157 51.3338 139.157 44.2588C139.157 37.3446 137.721 31.6766 134.85 27.2547C132.03 22.7525 128.58 20.5014 124.5 20.5014C120.42 20.5014 116.945 22.7525 114.074 27.2547C111.254 31.6766 109.843 37.3446 109.843 44.2588ZM97 44.2588C97 31.3952 99.6442 20.8229 104.933 12.542C110.272 4.18067 116.794 0 124.5 0C132.206 0 138.703 4.18067 143.992 12.542C149.331 20.8229 152 31.3952 152 44.2588C152 57.2028 149.331 67.8957 143.992 76.3374C138.703 84.7791 132.206 89 124.5 89C116.794 89 110.272 84.7791 104.933 76.3374C99.6442 67.8957 97 57.2028 97 44.2588Z" fill="#4000FF"/>
<path d="M92 2V22.4H76.9123V87H64.0877V22.4H49V2H92Z" fill="#4000FF"/>
<path d="M43 2V87H30.1303V2H43ZM12.8697 2V27.8643C12.8697 32.3167 13.652 35.8381 15.2166 38.4286C16.8316 40.9381 18.9008 42.1929 21.4243 42.1929C23.7964 42.1929 25.8404 41.0191 27.5563 38.6714C29.2723 36.3238 30.1303 33.531 30.1303 30.2929H34.5211C34.5211 39.2786 32.8556 46.7667 29.5246 52.7571C26.1937 58.6667 22.0299 61.6214 17.0335 61.6214C12.0874 61.6214 7.99941 59.0714 4.76937 53.9714C1.58979 48.8714 0 41.7881 0 32.7214V2H12.8697Z" fill="#4000FF"/>
</svg>
